<?xml version="1.0" standalone="no"?>
<!DOCTYPE svg PUBLIC "-//W3C//DTD SVG 1.1//EN" "http://www.w3.org/Graphics/SVG/1.1/DTD/svg11.dtd">
<svg version="1.1" xmlns="http://www.w3.org/2000/svg" viewBox="0 0 523.3766343493028 521.5055795507224" width="523.3766343493028" height="521.5055795507224" filter="invert(93%) hue-rotate(180deg)"><!-- svg-source:excalidraw --><metadata></metadata><defs><style class="style-fonts">
</style></defs><g stroke-linecap="round" transform="translate(10 10) rotate(0 251.6883171746514 250.75278977536118)"><path d="M32 0 C167.78 0, 303.56 0, 471.38 0 C492.71 0, 503.38 10.67, 503.38 32 C503.38 154.06, 503.38 276.11, 503.38 469.51 C503.38 490.84, 492.71 501.51, 471.38 501.51 C335.78 501.51, 200.18 501.51, 32 501.51 C10.67 501.51, 0 490.84, 0 469.51 C0 356.13, 0 242.76, 0 32 C0 10.67, 10.67 0, 32 0" stroke="none" stroke-width="0" fill="#1e1e1e"></path><path d="M32 0 C158.81 0, 285.62 0, 471.38 0 M32 0 C153.81 0, 275.63 0, 471.38 0 M471.38 0 C492.71 0, 503.38 10.67, 503.38 32 M471.38 0 C492.71 0, 503.38 10.67, 503.38 32 M503.38 32 C503.38 154.97, 503.38 277.94, 503.38 469.51 M503.38 32 C503.38 130.85, 503.38 229.69, 503.38 469.51 M503.38 469.51 C503.38 490.84, 492.71 501.51, 471.38 501.51 M503.38 469.51 C503.38 490.84, 492.71 501.51, 471.38 501.51 M471.38 501.51 C359.97 501.51, 248.56 501.51, 32 501.51 M471.38 501.51 C320.42 501.51, 169.46 501.51, 32 501.51 M32 501.51 C10.67 501.51, 0 490.84, 0 469.51 M32 501.51 C10.67 501.51, 0 490.84, 0 469.51 M0 469.51 C0 379.03, 0 288.56, 0 32 M0 469.51 C0 337.06, 0 204.62, 0 32 M0 32 C0 10.67, 10.67 0, 32 0 M0 32 C0 10.67, 10.67 0, 32 0" stroke="#1e1e1e" stroke-width="1" fill="none"></path></g><g transform="translate(160.98398679271213 58.08467260558518) rotate(0 92.08286543921167 198.35706610126317)" stroke="none"><path fill="#ffffff" d="M -0.12,-12.64 Q -0.12,-12.64 9.40,-13.33 18.94,-14.03 27.78,-15.32 36.63,-16.61 43.32,-18.16 50.01,-19.72 54.57,-21.38 59.13,-23.03 60.82,-24.57 62.52,-26.11 63.52,-26.45 64.52,-26.80 65.57,-26.89 66.63,-26.99 67.68,-26.82 68.72,-26.66 69.70,-26.26 70.68,-25.85 71.53,-25.22 72.38,-24.59 73.06,-23.78 73.74,-22.96 74.20,-22.01 74.66,-21.06 74.88,-20.02 75.11,-18.99 75.07,-17.93 75.04,-16.87 74.75,-15.85 74.47,-14.83 73.95,-13.91 73.42,-12.99 72.70,-12.22 71.97,-11.45 71.08,-10.87 70.19,-10.30 61.20,-5.51 52.21,-0.73 45.69,2.20 39.17,5.15 30.91,9.53 22.65,13.92 17.46,17.80 12.26,21.68 7.11,25.61 1.97,29.54 2.09,29.49 2.21,29.44 1.18,29.84 0.14,30.24 -0.96,30.38 -2.06,30.52 -3.17,30.39 -4.27,30.27 -5.32,29.88 -6.36,29.49 -7.28,28.87 -8.20,28.24 -8.94,27.41 -9.69,26.58 -10.21,25.60 -10.73,24.62 -11.01,23.54 -11.28,22.46 -11.29,21.35 -11.30,20.24 -11.04,19.15 -10.78,18.07 -10.27,17.08 -9.76,16.09 -9.02,15.25 -8.29,14.42 -7.38,13.78 -6.47,13.14 0.78,10.82 8.04,8.49 15.31,5.88 22.59,3.26 29.77,0.99 36.96,-1.27 41.67,-3.18 46.38,-5.09 50.61,-6.65 54.84,-8.22 55.97,-8.35 57.11,-8.48 58.24,-8.33 59.37,-8.19 60.44,-7.78 61.50,-7.37 62.44,-6.72 63.38,-6.06 64.13,-5.20 64.88,-4.34 65.41,-3.33 65.93,-2.32 66.20,-1.21 66.47,-0.10 66.46,1.04 66.46,2.18 66.18,3.29 65.90,4.39 65.36,5.40 64.82,6.41 64.06,7.26 63.30,8.11 62.36,8.76 61.41,9.40 60.34,9.80 59.27,10.20 52.08,12.69 44.89,15.19 39.23,18.23 33.57,21.26 25.61,26.43 17.66,31.59 13.10,35.82 8.54,40.04 5.81,44.04 3.09,48.04 2.34,48.87 1.59,49.69 0.67,50.31 -0.25,50.93 -1.30,51.30 -2.34,51.68 -3.45,51.80 -4.56,51.92 -5.66,51.77 -6.76,51.62 -7.80,51.21 -8.83,50.80 -9.74,50.15 -10.64,49.51 -11.37,48.66 -12.09,47.82 -12.59,46.82 -13.10,45.83 -13.35,44.75 -13.60,43.66 -13.58,42.55 -13.56,41.44 -13.28,40.36 -13.00,39.28 -12.47,38.31 -11.94,37.33 -6.76,33.96 -1.58,30.59 3.10,28.41 7.80,26.23 16.28,22.83 24.77,19.42 30.85,16.55 36.92,13.69 40.82,11.48 44.72,9.27 45.27,8.18 45.82,7.10 46.84,6.56 47.85,6.02 48.96,5.74 50.07,5.46 51.22,5.45 52.36,5.45 53.48,5.72 54.59,5.98 55.61,6.51 56.63,7.04 57.49,7.79 58.36,8.55 59.01,9.49 59.67,10.43 60.08,11.50 60.49,12.57 60.64,13.70 60.78,14.84 60.65,15.98 60.52,17.12 60.12,18.19 59.72,19.27 59.08,20.21 58.43,21.16 57.58,21.93 56.72,22.69 51.06,27.26 45.40,31.84 41.28,35.91 37.17,39.99 34.42,44.22 31.67,48.44 29.27,52.04 26.87,55.64 20.97,52.73 15.07,49.82 24.50,42.39 33.93,34.95 39.89,30.68 45.84,26.40 49.18,23.52 52.52,20.64 55.68,17.94 58.84,15.24 59.96,14.75 61.08,14.27 62.28,14.07 63.49,13.86 64.70,13.96 65.92,14.05 67.08,14.43 68.23,14.81 69.27,15.45 70.30,16.10 71.15,16.98 72.00,17.85 72.62,18.90 73.23,19.96 73.58,21.13 73.92,22.30 73.98,23.51 74.03,24.73 73.80,25.93 73.56,27.12 73.04,28.23 72.52,29.33 71.76,30.28 70.99,31.23 70.02,31.97 69.05,32.71 60.34,39.99 51.64,47.27 44.77,54.57 37.91,61.87 32.92,67.27 27.93,72.66 19.61,71.67 11.29,70.68 14.60,68.00 17.90,65.31 21.71,62.34 25.51,59.36 31.09,55.91 36.67,52.46 40.11,49.88 43.56,47.30 45.95,51.61 48.35,55.93 48.78,49.26 49.21,42.60 50.25,41.83 51.29,41.07 52.48,40.57 53.67,40.07 54.95,39.88 56.22,39.68 57.51,39.80 58.80,39.91 60.02,40.33 61.24,40.75 62.32,41.45 63.41,42.15 64.29,43.09 65.18,44.03 65.82,45.15 66.45,46.27 66.80,47.52 67.15,48.76 67.19,50.05 67.23,51.34 66.96,52.60 66.69,53.86 66.13,55.03 65.57,56.19 64.74,57.18 63.92,58.17 52.85,66.36 41.78,74.55 35.13,79.83 28.48,85.12 24.47,89.46 20.46,93.81 16.92,97.08 13.38,100.34 9.74,95.06 6.10,89.78 15.43,83.91 24.76,78.03 34.08,74.11 43.40,70.19 49.68,67.20 55.96,64.20 59.93,62.46 63.89,60.72 65.87,59.54 67.84,58.36 68.91,58.13 69.98,57.90 71.07,57.93 72.17,57.96 73.22,58.25 74.28,58.54 75.23,59.08 76.18,59.61 76.98,60.36 77.78,61.11 78.38,62.02 78.97,62.94 79.33,63.97 79.69,65.01 79.79,66.10 79.89,67.19 79.73,68.27 79.57,69.35 79.15,70.36 78.74,71.37 78.09,72.25 77.44,73.14 76.60,73.84 75.76,74.54 74.78,75.02 73.80,75.50 67.85,81.18 61.90,86.86 53.79,93.73 45.69,100.59 42.39,105.24 39.09,109.90 36.65,113.49 34.21,117.08 30.18,112.53 26.16,107.98 29.16,103.39 32.16,98.80 32.04,103.24 31.92,107.67 34.32,111.42 36.73,115.17 30.74,116.13 24.75,117.09 18.90,117.97 13.05,118.84 7.91,121.27 2.77,123.70 -2.93,126.50 -8.64,129.31 -12.46,131.48 -16.28,133.65 -20.79,126.51 -25.30,119.38 -21.27,117.91 -17.23,116.44 -15.55,114.92 -13.87,113.40 -12.46,113.37 -11.06,113.34 -9.68,113.65 -8.31,113.96 -7.04,114.59 -5.78,115.22 -4.71,116.14 -3.64,117.05 -2.81,118.19 -1.99,119.34 -1.46,120.65 -0.94,121.95 -0.74,123.35 -0.54,124.74 -0.68,126.15 -0.82,127.55 -1.30,128.88 -1.77,130.21 -2.55,131.38 -3.33,132.56 -4.36,133.51 -5.40,134.47 -6.63,135.15 -7.87,135.83 -9.23,136.19 -10.59,136.56 -18.78,139.07 -26.97,141.58 -30.97,143.04 -34.97,144.50 -42.61,146.04 -50.26,147.58 -52.35,148.31 -54.45,149.03 -55.92,149.26 -57.39,149.49 -58.87,149.36 -60.35,149.22 -61.76,148.74 -63.17,148.26 -64.42,147.45 -65.67,146.65 -66.69,145.57 -67.72,144.48 -68.45,143.19 -69.18,141.90 -69.59,140.46 -69.99,139.03 -70.04,137.54 -70.08,136.05 -69.77,134.60 -69.46,133.14 -68.82,131.80 -68.17,130.47 -67.22,129.32 -66.27,128.18 -65.07,127.29 -63.87,126.41 -62.50,125.83 -61.12,125.26 -53.78,122.73 -46.43,120.20 -41.58,117.82 -36.73,115.44 -35.36,114.78 -34.00,114.11 -32.65,113.44 -31.30,112.76 -29.83,112.44 -28.35,112.11 -26.85,112.14 -25.34,112.17 -23.89,112.57 -22.43,112.96 -21.11,113.69 -19.79,114.42 -18.69,115.44 -17.58,116.47 -16.75,117.72 -15.92,118.98 -15.42,120.40 -14.92,121.82 -14.77,123.32 -14.62,124.82 -14.83,126.32 -15.05,127.81 -15.61,129.20 -16.18,130.60 -17.06,131.82 -17.94,133.04 -19.09,134.02 -20.24,134.99 -26.27,136.14 -32.29,137.29 -40.82,138.45 -49.35,139.61 -57.89,141.66 -66.43,143.70 -70.49,144.48 -74.56,145.26 -76.05,145.33 -77.53,145.39 -78.99,145.10 -80.45,144.80 -81.80,144.17 -83.14,143.54 -84.30,142.60 -85.45,141.66 -86.35,140.48 -87.25,139.29 -87.83,137.92 -88.42,136.56 -88.66,135.09 -88.91,133.62 -88.79,132.14 -88.68,130.65 -88.21,129.24 -87.74,127.83 -86.95,126.57 -86.16,125.31 -85.09,124.28 -84.02,123.24 -82.73,122.49 -81.45,121.75 -80.02,121.33 -78.59,120.91 -74.02,120.92 -69.45,120.93 -65.18,120.65 -60.91,120.38 -52.60,118.30 -44.29,116.23 -40.90,114.59 -37.51,112.96 -36.08,112.62 -34.65,112.27 -33.18,112.28 -31.70,112.29 -30.28,112.66 -28.85,113.02 -27.55,113.71 -26.25,114.40 -25.16,115.39 -24.06,116.37 -23.23,117.59 -22.41,118.80 -21.89,120.18 -21.38,121.56 -21.21,123.03 -21.05,124.49 -21.23,125.95 -21.42,127.41 -21.95,128.78 -22.48,130.16 -23.33,131.36 -24.17,132.57 -25.28,133.54 -26.39,134.50 -27.70,135.18 -29.00,135.85 -36.45,138.39 -43.89,140.92 -47.95,142.62 -52.00,144.33 -57.61,147.59 -63.22,150.85 -66.65,141.69 -70.08,132.52 -59.29,132.21 -48.50,131.90 -40.40,130.09 -32.30,128.28 -26.25,126.16 -20.21,124.04 -16.44,121.41 -12.68,118.78 -10.30,116.74 -7.92,114.71 -6.91,114.06 -5.90,113.41 -4.76,113.02 -3.62,112.63 -2.42,112.52 -1.23,112.41 -0.04,112.60 1.14,112.78 2.25,113.24 3.36,113.71 4.33,114.42 5.29,115.14 6.06,116.06 6.83,116.99 7.35,118.07 7.88,119.15 8.13,120.33 8.38,121.50 8.34,122.70 8.30,123.90 7.97,125.06 7.65,126.22 7.06,127.27 6.46,128.31 5.64,129.19 4.81,130.06 -4.68,138.30 -14.17,146.54 -21.97,152.36 -29.76,158.18 -34.32,162.10 -38.88,166.02 -42.22,163.15 -45.57,160.27 -36.64,154.97 -27.71,149.66 -17.62,142.30 -7.53,134.94 1.09,128.23 9.72,121.52 14.20,117.54 18.69,113.56 20.91,110.32 23.13,107.08 24.02,106.52 24.91,105.95 25.91,105.61 26.91,105.28 27.96,105.19 29.01,105.10 30.06,105.27 31.10,105.43 32.07,105.84 33.04,106.25 33.89,106.88 34.73,107.51 35.40,108.33 36.07,109.14 36.53,110.10 36.98,111.05 37.20,112.08 37.41,113.11 37.37,114.17 37.33,115.22 37.04,116.24 36.75,117.25 36.23,118.17 35.70,119.08 34.98,119.85 34.25,120.61 26.15,126.60 18.05,132.58 13.66,137.34 9.27,142.09 5.68,145.93 2.09,149.76 -0.71,144.87 -3.52,139.98 9.63,135.09 22.78,130.21 35.68,125.26 48.58,120.31 57.00,116.79 65.43,113.27 72.40,109.80 79.36,106.33 83.35,103.14 87.34,99.94 89.03,99.20 90.72,98.47 91.58,98.01 92.43,97.56 93.38,97.32 94.32,97.08 95.29,97.08 96.26,97.07 97.20,97.30 98.15,97.53 99.01,97.98 99.87,98.42 100.60,99.06 101.33,99.70 101.88,100.50 102.44,101.30 102.79,102.20 103.13,103.11 103.26,104.07 103.38,105.04 103.26,106.00 103.15,106.96 102.81,107.87 102.47,108.78 101.92,109.58 101.38,110.39 100.65,111.03 99.93,111.68 94.45,115.16 88.98,118.65 79.66,124.15 70.34,129.64 63.70,134.79 57.05,139.94 52.28,144.11 47.52,148.29 44.33,151.68 41.14,155.06 38.28,158.62 35.43,162.17 34.55,162.77 33.66,163.37 32.66,163.74 31.65,164.11 30.59,164.23 29.52,164.35 28.46,164.21 27.40,164.08 26.40,163.69 25.41,163.30 24.53,162.68 23.66,162.07 22.95,161.26 22.25,160.45 21.76,159.50 21.27,158.55 21.03,157.51 20.78,156.46 20.79,155.39 20.80,154.32 21.06,153.29 21.33,152.25 21.83,151.31 22.34,150.36 23.06,149.57 23.77,148.77 32.76,145.36 41.74,141.96 50.70,137.05 59.66,132.14 71.68,124.94 83.69,117.73 90.69,112.88 97.69,108.03 102.62,104.32 107.56,100.62 110.62,97.04 113.68,93.47 114.55,92.99 115.42,92.51 116.38,92.26 117.34,92.00 118.33,91.98 119.32,91.96 120.29,92.18 121.26,92.40 122.14,92.85 123.03,93.29 123.79,93.94 124.54,94.58 125.12,95.39 125.70,96.19 126.07,97.11 126.44,98.04 126.57,99.02 126.71,100.00 126.61,100.99 126.51,101.97 126.17,102.91 125.84,103.84 125.29,104.67 124.74,105.50 124.01,106.17 123.28,106.84 115.58,111.64 107.89,116.44 102.70,120.63 97.51,124.81 88.27,130.92 79.03,137.03 72.80,141.54 66.56,146.06 62.47,149.19 58.38,152.32 57.42,154.80 56.46,157.27 55.67,157.97 54.88,158.66 53.95,159.15 53.01,159.64 51.99,159.88 50.97,160.13 49.91,160.13 48.86,160.12 47.84,159.87 46.82,159.61 45.89,159.12 44.96,158.63 44.17,157.93 43.39,157.23 42.79,156.36 42.20,155.49 41.83,154.50 41.46,153.52 41.33,152.47 41.21,151.43 41.34,150.38 41.47,149.34 41.85,148.35 42.23,147.37 42.83,146.51 43.43,145.64 51.10,143.17 58.78,140.70 68.77,138.19 78.77,135.67 89.52,132.01 100.27,128.35 111.40,124.12 122.53,119.89 131.33,116.56 140.13,113.24 149.00,110.25 157.87,107.26 163.40,104.85 168.93,102.44 174.06,100.70 179.20,98.96 183.79,97.17 188.38,95.38 189.42,95.32 190.45,95.26 191.47,95.45 192.48,95.64 193.43,96.07 194.37,96.50 195.18,97.15 195.99,97.79 196.63,98.61 197.26,99.42 197.68,100.37 198.10,101.32 198.28,102.33 198.46,103.35 198.39,104.39 198.33,105.42 198.01,106.40 197.70,107.39 197.16,108.27 196.62,109.16 195.89,109.89 195.15,110.61 194.26,111.14 193.37,111.68 192.38,111.98 191.40,112.28 187.11,116.70 182.83,121.12 178.48,124.17 174.12,127.23 170.52,130.06 166.92,132.89 162.25,136.94 157.57,140.98 156.40,141.67 155.22,142.36 154.11,143.03 152.99,143.70 151.74,144.08 150.50,144.46 149.20,144.53 147.90,144.60 146.62,144.36 145.34,144.12 144.15,143.58 142.97,143.03 141.95,142.23 140.93,141.42 140.13,140.39 139.34,139.36 138.81,138.17 138.28,136.98 138.05,135.70 137.83,134.41 137.91,133.11 138.00,131.82 138.39,130.57 138.79,129.33 139.47,128.22 140.15,127.11 141.07,126.20 142.00,125.28 147.57,122.52 153.15,119.76 157.43,117.65 161.70,115.53 167.56,112.88 173.42,110.22 179.12,107.80 184.82,105.37 190.24,103.15 195.67,100.92 200.32,99.31 204.97,97.70 210.24,96.40 215.52,95.09 219.89,94.57 224.26,94.06 229.71,93.16 235.16,92.27 236.17,92.14 237.18,92.00 238.69,91.98 240.19,91.95 241.66,92.29 243.13,92.63 244.48,93.30 245.82,93.98 246.97,94.96 248.11,95.94 248.99,97.17 249.86,98.39 250.42,99.79 250.98,101.19 251.19,102.69 251.39,104.18 251.24,105.68 251.08,107.17 250.57,108.59 250.06,110.01 249.22,111.26 248.39,112.52 247.28,113.54 246.16,114.55 244.84,115.28 243.52,116.00 242.06,116.38 240.61,116.77 235.43,117.59 230.24,118.40 217.31,120.48 204.37,122.55 186.31,125.92 168.24,129.30 151.97,132.13 135.70,134.95 125.85,136.77 116.01,138.59 110.67,140.46 105.33,142.34 103.50,143.34 101.66,144.34 100.68,144.51 99.69,144.69 98.69,144.62 97.69,144.55 96.74,144.25 95.79,143.94 94.93,143.42 94.08,142.90 93.38,142.19 92.67,141.47 92.16,140.61 91.65,139.75 91.36,138.80 91.07,137.84 91.01,136.84 90.96,135.84 91.15,134.86 91.33,133.87 91.75,132.96 92.17,132.05 92.79,131.27 93.41,130.49 94.20,129.87 94.99,129.26 95.91,128.86 96.82,128.45 104.20,127.39 111.58,126.32 117.11,124.98 122.64,123.63 127.60,121.76 132.56,119.88 133.80,126.96 135.03,134.04 125.58,135.04 116.13,136.03 101.24,136.99 86.36,137.95 72.19,139.75 58.02,141.55 47.03,143.38 36.03,145.20 29.93,146.71 23.83,148.22 21.70,149.84 19.56,151.45 18.61,151.67 17.65,151.89 16.67,151.88 15.69,151.86 14.74,151.61 13.79,151.36 12.93,150.89 12.07,150.42 11.35,149.76 10.62,149.10 10.08,148.28 9.53,147.47 9.20,146.54 8.87,145.62 8.76,144.65 8.66,143.67 8.79,142.70 8.93,141.73 9.29,140.82 9.65,139.91 10.22,139.11 10.79,138.31 11.54,137.67 12.28,137.03 13.16,136.59 14.03,136.15 20.07,135.72 26.11,135.30 33.09,135.83 40.07,136.35 48.26,136.97 56.44,137.58 63.95,137.78 71.45,137.97 77.14,137.79 82.83,137.61 87.49,137.11 92.15,136.62 93.25,136.76 94.34,136.89 95.37,137.29 96.40,137.69 97.31,138.32 98.21,138.95 98.94,139.78 99.67,140.61 100.17,141.59 100.68,142.57 100.94,143.64 101.20,144.71 101.20,145.82 101.19,146.92 100.92,147.99 100.65,149.06 100.13,150.04 99.62,151.01 98.88,151.83 98.14,152.66 97.23,153.28 96.32,153.90 95.29,154.29 94.25,154.67 93.16,154.80 92.06,154.93 84.83,159.01 77.60,163.08 73.65,164.86 69.70,166.64 65.62,169.62 61.53,172.60 60.64,173.04 59.75,173.48 58.58,174.18 57.41,174.88 56.11,175.28 54.81,175.69 53.45,175.76 52.09,175.84 50.75,175.59 49.41,175.35 48.17,174.78 46.93,174.22 45.86,173.38 44.79,172.53 43.95,171.46 43.11,170.39 42.56,169.14 42.00,167.90 41.76,166.56 41.52,165.22 41.60,163.86 41.69,162.50 42.10,161.20 42.51,159.90 43.21,158.73 43.92,157.57 44.89,156.61 45.85,155.65 52.37,156.46 58.90,157.27 61.64,158.97 64.38,160.68 64.75,161.99 65.12,163.29 65.17,164.65 65.22,166.00 64.94,167.33 64.66,168.66 64.07,169.88 63.48,171.11 62.62,172.15 61.76,173.20 60.67,174.01 59.58,174.82 58.33,175.35 57.08,175.87 55.74,176.08 54.40,176.29 53.05,176.18 51.69,176.06 50.41,175.63 49.12,175.19 47.98,174.46 46.84,173.73 45.90,172.75 44.97,171.76 44.29,170.58 43.62,169.41 53.78,170.04 63.94,170.66 60.24,175.38 56.54,180.09 51.33,185.26 46.13,190.43 41.78,194.07 37.42,197.71 36.22,198.54 35.01,199.37 33.64,199.88 32.27,200.40 30.82,200.57 29.37,200.74 27.92,200.57 26.46,200.39 25.10,199.86 23.73,199.34 22.53,198.51 21.33,197.67 20.36,196.58 19.39,195.48 18.72,194.18 18.04,192.89 17.69,191.46 17.35,190.04 17.35,188.58 17.35,187.12 17.71,185.70 18.06,184.28 18.74,182.99 19.43,181.69 20.40,180.60 21.37,179.51 26.83,179.52 32.28,179.53 38.56,176.26 44.83,172.98 53.31,170.77 61.78,168.57 69.05,165.62 76.31,162.68 81.82,160.46 87.33,158.23 89.94,156.76 92.56,155.30 93.67,155.03 94.78,154.76 95.93,154.77 97.07,154.77 98.18,155.05 99.29,155.33 100.30,155.87 101.31,156.40 102.16,157.16 103.02,157.93 103.66,158.87 104.31,159.81 104.71,160.89 105.11,161.96 105.25,163.09 105.38,164.23 105.24,165.37 105.09,166.50 104.68,167.57 104.27,168.64 103.62,169.58 102.97,170.52 102.11,171.27 101.25,172.03 100.23,172.55 99.22,173.08 92.92,176.16 86.63,179.24 79.69,183.14 72.75,187.04 67.62,190.67 62.48,194.30 59.22,198.34 55.96,202.38 55.80,203.54 55.64,204.69 54.80,205.52 53.97,206.35 52.96,206.96 51.95,207.56 50.82,207.91 49.69,208.25 48.52,208.32 47.34,208.38 46.18,208.17 45.03,207.95 43.95,207.46 42.88,206.97 41.96,206.24 41.03,205.51 40.31,204.58 39.59,203.65 39.11,202.57 38.63,201.50 38.43,200.34 38.22,199.18 38.30,198.00 38.37,196.83 38.73,195.70 39.08,194.58 39.70,193.58 40.31,192.57 44.24,189.32 48.17,186.08 52.00,183.79 55.84,181.51 57.07,181.04 58.30,180.57 59.61,180.41 60.92,180.25 62.23,180.41 63.54,180.57 64.77,181.04 66.01,181.51 67.09,182.26 68.18,183.01 69.05,184.00 69.93,184.98 70.54,186.15 71.15,187.32 71.47,188.60 71.78,189.88 71.78,191.20 71.78,192.52 71.46,193.80 71.15,195.08 70.53,196.25 69.92,197.41 69.05,198.40 68.17,199.39 67.09,200.14 66.00,200.89 59.50,207.55 53.00,214.21 48.43,217.26 43.87,220.31 41.98,223.65 40.09,226.99 39.20,228.05 38.32,229.11 37.21,229.93 36.09,230.75 34.82,231.28 33.54,231.80 32.18,232.01 30.81,232.22 29.44,232.09 28.06,231.97 26.75,231.52 25.45,231.06 24.29,230.31 23.13,229.56 22.18,228.56 21.24,227.55 20.56,226.35 19.88,225.14 19.51,223.81 19.14,222.48 19.10,221.10 19.06,219.72 19.35,218.37 19.64,217.02 20.25,215.78 20.85,214.54 27.75,211.47 34.65,208.40 40.47,207.08 46.30,205.76 51.08,203.97 55.87,202.18 57.36,202.05 58.85,201.93 60.33,202.17 61.80,202.40 63.18,202.99 64.56,203.57 65.76,204.47 66.96,205.37 67.91,206.52 68.85,207.68 69.50,209.03 70.14,210.38 70.45,211.85 70.75,213.32 70.69,214.81 70.63,216.31 70.22,217.75 69.80,219.18 69.06,220.48 68.31,221.78 67.28,222.86 66.24,223.94 64.98,224.74 63.72,225.55 62.30,226.02 60.88,226.50 65.60,221.85 70.33,217.20 67.33,223.63 64.32,230.06 59.58,236.87 54.84,243.67 51.33,247.49 47.81,251.30 44.46,256.01 41.11,260.72 40.08,261.60 39.06,262.48 38.03,263.62 37.00,264.75 35.73,265.60 34.46,266.46 33.02,266.98 31.58,267.51 30.06,267.67 28.54,267.84 27.02,267.63 25.50,267.43 24.08,266.87 22.65,266.31 21.40,265.42 20.15,264.54 19.15,263.38 18.15,262.22 17.46,260.86 16.76,259.49 16.42,258.00 16.07,256.51 16.09,254.98 16.11,253.45 16.49,251.97 16.88,250.48 17.60,249.14 18.33,247.79 22.43,245.78 26.52,243.77 36.08,235.91 45.63,228.06 50.11,224.43 54.59,220.80 59.13,216.68 63.67,212.56 64.39,212.24 65.12,211.92 66.31,211.16 67.50,210.40 68.83,209.94 70.17,209.49 71.58,209.37 72.99,209.24 74.38,209.46 75.78,209.68 77.08,210.23 78.38,210.78 79.52,211.62 80.65,212.46 81.55,213.55 82.45,214.64 83.06,215.91 83.68,217.19 83.97,218.57 84.26,219.95 84.21,221.36 84.16,222.78 83.77,224.14 83.39,225.49 82.69,226.72 81.99,227.95 81.01,228.97 80.04,230.00 73.06,236.41 66.08,242.81 62.12,246.31 58.15,249.81 54.51,252.62 50.86,255.44 45.43,259.75 40.00,264.06 39.53,265.68 39.06,267.29 38.40,268.64 37.75,269.99 36.79,271.15 35.82,272.30 34.62,273.19 33.41,274.08 32.02,274.66 30.63,275.24 29.15,275.46 27.66,275.69 26.17,275.56 24.67,275.42 23.25,274.93 21.83,274.44 20.57,273.63 19.30,272.82 18.27,271.72 17.24,270.63 16.50,269.32 15.76,268.01 15.36,266.57 14.95,265.12 14.91,263.62 14.86,262.12 15.17,260.65 15.49,259.18 21.94,253.54 28.39,247.91 39.57,240.11 50.76,232.32 59.30,227.60 67.84,222.88 72.48,219.61 77.11,216.34 80.93,214.18 84.75,212.01 85.87,211.56 86.99,211.10 88.19,210.93 89.38,210.76 90.59,210.87 91.79,210.99 92.93,211.39 94.07,211.79 95.08,212.46 96.09,213.12 96.92,214.01 97.74,214.89 98.32,215.95 98.91,217.01 99.23,218.18 99.54,219.34 99.57,220.55 99.60,221.76 99.34,222.94 99.08,224.12 98.54,225.20 98.00,226.29 97.22,227.21 96.44,228.13 95.46,228.84 94.49,229.55 88.47,237.45 82.46,245.35 78.71,250.14 74.96,254.94 71.65,258.72 68.33,262.51 63.40,267.62 58.47,272.73 54.22,276.91 49.98,281.09 46.09,285.70 42.20,290.31 36.97,292.18 31.74,294.06 35.12,293.34 38.49,292.62 37.43,293.36 36.36,294.10 35.14,294.56 33.93,295.03 32.64,295.19 31.35,295.35 30.06,295.19 28.77,295.04 27.55,294.58 26.33,294.12 25.26,293.39 24.19,292.65 23.32,291.68 22.46,290.71 21.85,289.56 21.25,288.41 20.93,287.15 20.62,285.88 20.62,284.58 20.61,283.28 20.92,282.02 21.23,280.76 21.83,279.61 22.43,278.45 23.29,277.48 24.15,276.50 30.00,272.76 35.85,269.01 40.60,266.07 45.35,263.12 51.34,259.17 57.33,255.23 60.52,252.26 63.71,249.30 71.88,244.03 80.04,238.77 79.44,238.99 78.84,239.22 80.09,238.83 81.35,238.45 82.65,238.37 83.96,238.30 85.25,238.54 86.53,238.78 87.73,239.32 88.92,239.87 89.95,240.68 90.97,241.49 91.78,242.52 92.58,243.56 93.11,244.75 93.65,245.95 93.88,247.24 94.11,248.53 94.03,249.83 93.94,251.14 93.55,252.39 93.15,253.64 92.47,254.75 91.79,255.87 90.86,256.79 89.93,257.72 88.81,258.39 87.68,259.06 84.07,263.95 80.46,268.83 69.79,278.92 59.13,289.01 53.65,294.38 48.18,299.74 45.37,303.83 42.57,307.91 41.61,310.57 40.64,313.23 39.92,314.15 39.20,315.07 38.27,315.79 37.35,316.51 36.28,316.98 35.22,317.46 34.07,317.67 32.91,317.88 31.75,317.80 30.58,317.73 29.47,317.38 28.35,317.03 27.35,316.42 26.35,315.81 25.53,314.98 24.70,314.15 24.10,313.15 23.50,312.15 23.15,311.03 22.81,309.92 22.74,308.75 22.67,307.58 22.89,306.43 23.10,305.28 23.58,304.22 24.07,303.15 29.13,299.23 34.20,295.30 38.24,292.23 42.28,289.15 48.75,284.41 55.22,279.66 58.82,276.42 62.42,273.18 66.10,269.31 69.78,265.44 70.80,264.79 71.83,264.14 72.98,263.76 74.13,263.37 75.34,263.28 76.55,263.18 77.75,263.38 78.95,263.57 80.07,264.05 81.18,264.52 82.15,265.25 83.12,265.98 83.89,266.92 84.66,267.87 85.18,268.96 85.70,270.06 85.94,271.25 86.18,272.44 86.13,273.65 86.08,274.87 85.75,276.03 85.41,277.20 84.80,278.25 84.19,279.30 83.35,280.18 82.51,281.05 74.91,286.97 67.31,292.89 62.17,298.10 57.03,303.32 49.37,310.78 41.72,318.24 36.18,325.31 30.63,332.38 27.37,336.80 24.10,341.22 22.79,344.56 21.49,347.89 20.76,348.63 20.03,349.38 19.14,349.93 18.25,350.48 17.26,350.80 16.27,351.12 15.22,351.19 14.18,351.27 13.15,351.09 12.13,350.91 11.17,350.49 10.21,350.07 9.39,349.44 8.56,348.80 7.91,347.99 7.25,347.18 6.82,346.23 6.38,345.28 6.18,344.26 5.98,343.23 6.03,342.19 6.09,341.15 6.39,340.15 6.69,339.15 7.22,338.25 7.75,337.35 12.25,334.84 16.75,332.32 21.83,329.75 26.90,327.18 31.98,324.16 37.05,321.14 40.98,318.25 44.91,315.36 49.96,311.66 55.01,307.97 56.24,306.90 57.46,305.84 58.59,305.27 59.72,304.71 60.95,304.43 62.18,304.15 63.44,304.17 64.70,304.19 65.92,304.52 67.14,304.84 68.25,305.45 69.35,306.05 70.28,306.91 71.21,307.76 71.91,308.81 72.61,309.86 73.04,311.05 73.46,312.24 73.59,313.49 73.72,314.75 73.55,316.00 73.37,317.25 72.90,318.42 72.43,319.59 71.70,320.62 70.96,321.64 70.00,322.46 69.04,323.28 66.95,329.27 64.86,335.26 59.21,342.37 53.55,349.48 50.71,354.26 47.87,359.04 45.25,364.67 42.64,370.30 42.21,370.84 41.79,371.38 41.05,372.36 40.32,373.34 39.38,374.11 38.44,374.88 37.34,375.40 36.24,375.93 35.04,376.17 33.85,376.42 32.63,376.37 31.41,376.32 30.24,375.99 29.07,375.65 28.01,375.04 26.96,374.43 26.08,373.59 25.20,372.75 24.54,371.72 23.89,370.69 23.50,369.53 23.12,368.38 23.02,367.16 22.92,365.95 23.11,364.74 23.30,363.54 23.78,362.42 24.26,361.30 28.30,357.51 32.34,353.72 36.41,350.46 40.48,347.19 43.76,343.82 47.04,340.45 50.55,337.50 54.05,334.55 56.28,330.85 58.51,327.16 59.23,325.96 59.95,324.76 60.93,323.78 61.91,322.79 63.11,322.06 64.30,321.34 65.63,320.92 66.96,320.50 68.35,320.41 69.74,320.32 71.12,320.57 72.49,320.82 73.76,321.39 75.04,321.95 76.14,322.81 77.24,323.67 78.10,324.76 78.96,325.86 79.54,327.13 80.12,328.40 80.37,329.77 80.63,331.14 80.55,332.54 80.47,333.93 80.05,335.26 79.64,336.59 75.03,343.61 70.42,350.63 66.66,357.14 62.91,363.66 58.57,360.63 54.23,357.60 48.28,357.57 42.33,357.55 46.49,352.75 50.64,347.94 55.79,343.35 60.94,338.77 63.01,337.03 65.08,335.29 66.22,334.29 67.36,333.29 68.71,332.59 70.06,331.89 71.54,331.53 73.01,331.17 74.53,331.18 76.05,331.19 77.53,331.56 79.00,331.93 80.34,332.64 81.68,333.36 82.82,334.37 83.95,335.38 84.80,336.64 85.66,337.89 86.19,339.31 86.72,340.74 86.90,342.24 87.08,343.75 86.89,345.26 86.70,346.77 86.15,348.19 85.60,349.60 84.74,350.85 83.87,352.09 85.17,360.50 86.48,368.90 86.54,374.81 86.60,380.72 86.66,381.99 86.72,383.26 86.53,384.80 86.34,386.33 85.79,387.78 85.24,389.23 84.36,390.51 83.48,391.78 82.32,392.81 81.16,393.83 79.78,394.55 78.41,395.27 76.90,395.64 75.40,396.01 73.85,396.01 72.30,396.00 70.79,395.63 69.29,395.26 67.92,394.54 66.55,393.81 65.39,392.79 64.23,391.76 63.35,390.48 62.47,389.20 61.92,387.75 61.38,386.30 61.19,384.76 61.01,383.23 64.87,377.39 68.72,371.56 73.53,365.38 78.34,359.21 83.17,353.51 87.99,347.80 88.81,346.45 89.63,345.09 90.80,344.14 91.98,343.20 93.34,342.56 94.71,341.92 96.19,341.62 97.67,341.33 99.18,341.40 100.69,341.47 102.13,341.89 103.58,342.32 104.88,343.08 106.19,343.85 107.27,344.90 108.35,345.95 109.15,347.23 109.95,348.51 110.42,349.94 110.89,351.38 111.00,352.88 111.12,354.39 110.87,355.87 110.62,357.36 110.02,358.75 109.42,360.13 108.51,361.33 107.59,362.54 104.86,368.94 102.12,375.35 99.38,381.64 96.63,387.92 94.49,392.86 92.36,397.79 90.91,402.45 89.46,407.11 89.27,407.63 89.08,408.14 88.55,409.46 88.02,410.78 87.20,411.93 86.37,413.09 85.29,414.01 84.20,414.93 82.93,415.57 81.66,416.20 80.28,416.52 78.89,416.83 77.47,416.80 76.05,416.78 74.68,416.41 73.30,416.04 72.06,415.36 70.81,414.68 69.77,413.71 68.72,412.75 67.94,411.57 67.15,410.38 66.67,409.05 66.20,407.71 66.05,406.29 65.91,404.88 66.10,403.47 66.30,402.07 68.90,397.44 71.50,392.81 75.15,388.10 78.80,383.39 82.72,379.35 86.63,375.31 90.30,371.09 93.97,366.87 93.80,365.72 93.63,364.57 94.45,363.34 95.27,362.10 96.36,361.10 97.45,360.10 98.74,359.39 100.04,358.68 101.47,358.30 102.90,357.92 104.38,357.89 105.86,357.87 107.30,358.19 108.74,358.52 110.07,359.18 111.39,359.85 112.51,360.81 113.64,361.77 114.50,362.97 115.36,364.17 115.91,365.55 116.46,366.92 116.67,368.38 116.87,369.85 116.72,371.32 116.57,372.79 116.07,374.18 115.57,375.58 116.29,383.78 117.00,391.99 116.96,396.77 116.93,401.56 117.06,406.51 117.19,411.45 117.82,412.75 118.46,414.04 118.28,415.52 118.10,417.00 117.57,418.39 117.04,419.79 116.20,421.02 115.35,422.24 114.24,423.23 113.12,424.22 111.80,424.92 110.48,425.61 109.03,425.97 107.59,426.33 106.09,426.33 104.60,426.33 103.15,425.98 101.71,425.62 100.39,424.93 99.06,424.24 97.95,423.25 96.83,422.26 95.98,421.03 95.13,419.81 94.60,418.41 94.07,417.02 93.89,415.54 93.71,414.06 98.12,405.15 102.53,396.24 104.66,391.17 106.80,386.11 108.90,381.27 110.99,376.44 112.54,371.99 114.10,367.54 114.17,366.20 114.24,364.86 114.83,363.55 115.43,362.23 116.32,361.09 117.22,359.96 118.35,359.07 119.49,358.18 120.81,357.59 122.13,357.00 123.55,356.74 124.97,356.48 126.42,356.57 127.86,356.66 129.24,357.09 130.62,357.53 131.85,358.28 133.09,359.02 134.11,360.05 135.13,361.07 135.87,362.31 136.62,363.55 137.04,364.93 137.47,366.31 137.56,367.75 137.64,369.19 137.38,370.61 137.12,372.03 133.94,365.18 130.76,358.33 134.40,361.76 138.03,365.20 139.99,369.59 141.95,373.97 144.41,380.67 146.88,387.37 147.62,387.51 148.36,387.65 149.23,388.89 150.10,390.14 150.65,391.56 151.20,392.97 151.39,394.48 151.59,395.99 151.41,397.50 151.24,399.01 150.71,400.43 150.18,401.86 149.33,403.12 148.47,404.37 147.34,405.39 146.21,406.41 144.87,407.12 143.53,407.84 142.06,408.21 140.58,408.59 139.06,408.60 137.54,408.61 136.07,408.25 134.59,407.90 133.24,407.20 131.88,406.51 130.74,405.51 129.60,404.51 128.48,398.01 127.36,391.52 125.38,383.57 123.39,375.61 122.29,369.43 121.18,363.25 120.87,360.87 120.55,358.49 120.60,357.00 120.66,355.50 121.06,354.06 121.47,352.62 122.21,351.32 122.95,350.02 123.98,348.94 125.01,347.86 126.27,347.05 127.53,346.24 128.95,345.76 130.36,345.28 131.85,345.15 133.34,345.02 134.82,345.25 136.30,345.48 137.67,346.06 139.05,346.64 140.25,347.53 141.45,348.42 142.41,349.58 143.36,350.73 144.01,352.08 144.66,353.42 144.96,354.89 145.27,356.35 139.76,350.73 134.24,345.11 141.88,349.54 149.53,353.97 153.36,360.32 157.19,366.68 159.79,372.46 162.40,378.24 165.48,382.08 168.57,385.93 169.06,387.50 169.55,389.06 169.65,390.70 169.76,392.33 169.46,393.95 169.17,395.56 168.50,397.06 167.83,398.55 166.82,399.85 165.82,401.14 164.53,402.16 163.24,403.17 161.74,403.85 160.25,404.52 158.64,404.82 157.03,405.12 155.39,405.03 153.75,404.93 152.18,404.45 150.62,403.96 149.21,403.12 147.81,402.27 146.64,401.11 145.48,399.96 144.63,398.56 143.78,397.15 143.66,391.57 143.55,385.99 144.87,380.83 146.18,375.67 147.38,370.29 148.57,364.90 150.97,358.03 153.38,351.16 160.58,346.91 167.77,342.66 172.19,343.69 176.60,344.73 180.29,348.99 183.99,353.24 185.69,360.87 187.39,368.50 187.43,372.93 187.48,377.36 187.63,381.87 187.78,386.37 187.83,387.57 187.88,388.76 187.70,390.37 187.52,391.97 186.96,393.49 186.40,395.01 185.50,396.35 184.59,397.69 183.39,398.77 182.19,399.85 180.77,400.62 179.34,401.38 177.77,401.78 176.21,402.19 174.59,402.20 172.97,402.21 171.40,401.84 169.83,401.47 168.39,400.73 166.95,399.99 165.73,398.93 164.51,397.87 163.58,396.55 162.65,395.23 162.06,393.72 161.47,392.21 161.26,390.61 161.06,389.01 161.89,381.63 162.73,374.25 162.93,369.84 163.13,365.43 161.72,360.40 160.30,355.37 160.13,354.43 159.96,353.49 159.80,351.89 159.64,350.30 159.86,348.71 160.09,347.12 160.68,345.64 161.28,344.15 162.22,342.85 163.15,341.55 164.37,340.51 165.59,339.47 167.03,338.75 168.46,338.03 170.02,337.68 171.59,337.33 173.19,337.36 174.79,337.39 176.34,337.80 177.89,338.22 179.29,338.99 180.69,339.76 181.87,340.85 183.05,341.93 183.94,343.27 184.82,344.61 185.36,346.12 185.90,347.63 192.49,353.38 199.08,359.14 194.49,359.28 189.91,359.42 191.60,355.15 193.30,350.88 196.15,343.47 199.00,336.06 207.90,336.07 216.80,336.08 220.29,338.66 223.78,341.24 228.35,347.58 232.91,353.92 234.75,358.21 236.59,362.51 237.16,364.09 237.73,365.67 237.90,367.34 238.08,369.02 237.85,370.68 237.61,372.35 236.99,373.91 236.37,375.48 235.39,376.84 234.41,378.21 233.13,379.31 231.85,380.40 230.35,381.16 228.85,381.91 227.21,382.29 225.57,382.66 223.88,382.63 222.20,382.60 220.58,382.17 218.95,381.74 217.47,380.94 216.00,380.13 214.76,378.99 213.52,377.85 212.59,376.45 211.65,375.05 208.65,367.57 205.64,360.08 203.91,353.12 202.18,346.17 200.56,340.05 198.94,333.94 197.14,328.05 195.34,322.17 194.06,319.60 192.78,317.02 192.61,315.52 192.44,314.03 192.64,312.53 192.83,311.04 193.38,309.64 193.92,308.23 194.79,307.00 195.65,305.77 196.79,304.78 197.92,303.79 199.26,303.10 200.60,302.41 202.06,302.06 203.53,301.71 205.03,301.73 206.54,301.74 208.00,302.11 209.46,302.48 210.78,303.19 212.11,303.90 213.23,304.91 214.35,305.92 215.19,307.16 216.04,308.41 216.56,309.82 217.09,311.23 218.92,315.35 220.76,319.47 224.72,323.79 228.68,328.10 229.16,327.96 229.63,327.82 231.00,328.67 232.37,329.51 233.49,330.65 234.62,331.80 235.44,333.18 236.26,334.56 236.73,336.09 237.19,337.63 237.27,339.23 237.36,340.84 237.06,342.41 236.75,343.99 236.08,345.45 235.41,346.91 234.41,348.17 233.41,349.42 232.14,350.40 230.87,351.38 229.40,352.03 227.93,352.68 226.35,352.95 224.77,353.23 223.17,353.12 221.56,353.01 220.03,352.52 218.51,352.03 214.90,343.71 211.30,335.39 210.27,330.94 209.24,326.50 208.71,320.29 208.18,314.07 208.04,312.61 207.91,311.16 208.04,309.54 208.16,307.92 208.67,306.38 209.18,304.84 210.05,303.47 210.91,302.10 212.08,300.97 213.24,299.85 214.65,299.03 216.05,298.22 217.60,297.76 219.16,297.31 220.78,297.24 222.40,297.17 223.99,297.49 225.58,297.81 227.05,298.50 228.51,299.19 229.77,300.21 231.03,301.24 232.01,302.53 232.99,303.82 233.63,305.31 234.26,306.80 234.53,308.40 234.79,310.00 237.22,316.67 239.64,323.34 240.04,326.92 240.44,330.50 240.34,332.18 240.25,333.86 239.75,335.47 239.26,337.08 238.39,338.53 237.53,339.97 236.34,341.17 235.15,342.37 233.72,343.24 232.28,344.12 230.67,344.63 229.06,345.14 227.38,345.25 225.70,345.35 224.04,345.06 222.38,344.76 220.85,344.08 219.31,343.39 217.98,342.36 216.64,341.32 215.60,340.00 214.56,338.68 213.86,337.15 213.16,335.61 212.85,333.96 212.54,332.30 211.62,327.89 210.70,323.47 210.30,314.20 209.90,304.92 209.19,298.66 208.48,292.39 207.60,285.64 206.72,278.88 206.94,276.73 207.15,274.58 207.25,273.16 207.35,271.75 207.78,270.40 208.21,269.05 208.95,267.84 209.70,266.63 210.71,265.64 211.72,264.65 212.94,263.92 214.16,263.20 215.51,262.79 216.87,262.38 218.29,262.30 219.70,262.23 221.09,262.50 222.48,262.76 223.77,263.36 225.06,263.95 226.17,264.83 227.28,265.71 228.14,266.84 229.01,267.96 229.58,269.26 230.15,270.55 230.39,271.95 230.64,273.35 233.93,277.10 237.23,280.86 239.59,285.38 241.95,289.91 244.84,296.09 247.74,302.27 248.10,304.13 248.47,305.99 248.66,307.46 248.84,308.93 248.67,310.41 248.50,311.88 247.98,313.27 247.47,314.67 246.63,315.89 245.79,317.12 244.69,318.11 243.58,319.10 242.27,319.80 240.96,320.50 239.52,320.86 238.08,321.22 236.60,321.23 235.11,321.24 233.67,320.90 232.22,320.55 230.91,319.87 229.59,319.18 228.47,318.21 227.35,317.23 226.50,316.01 225.65,314.79 225.12,313.41 224.58,312.02 224.47,307.53 224.37,303.05 228.17,296.54 231.96,290.03 236.71,289.42 241.46,288.81 246.56,291.11 251.66,293.42 254.58,298.04 257.51,302.67 260.05,309.12 262.58,315.58 258.53,316.91 254.49,318.23 249.66,320.95 244.84,323.67 246.15,314.60 247.46,305.52 248.72,299.37 249.97,293.23 250.15,291.23 250.33,289.23 250.88,287.27 251.43,285.31 252.58,283.62 253.73,281.94 255.36,280.72 256.99,279.49 258.92,278.85 260.86,278.20 262.89,278.21 264.93,278.22 266.86,278.88 268.79,279.54 270.41,280.78 272.02,282.01 273.16,283.71 274.30,285.40 274.83,287.36 275.37,289.33 275.25,291.36 275.14,293.40 274.37,295.29 273.61,297.18 272.29,298.73 270.96,300.27 269.21,301.32 267.46,302.36 265.47,302.79 263.47,303.22 261.45,302.99 259.42,302.76 257.58,301.90 255.73,301.04 254.26,299.63 252.78,298.22 251.84,296.42 250.89,294.61 250.57,292.60 250.25,290.59 250.59,288.58 250.92,286.57 251.89,284.77 252.85,282.98 254.33,281.58 255.82,280.19 257.67,279.34 259.52,278.49 261.55,278.28 263.58,278.07 265.57,278.51 267.56,278.96 269.30,280.02 271.04,281.07 272.35,282.63 273.66,284.19 274.41,286.09 275.16,287.98 275.26,290.02 275.36,292.06 275.36,292.05 275.36,292.05 275.04,294.51 274.71,296.97 273.19,303.60 271.66,310.23 270.69,316.59 269.71,322.94 266.82,329.37 263.92,335.80 256.88,338.47 249.85,341.13 244.09,333.22 238.33,325.30 238.78,319.16 239.24,313.01 243.85,309.50 248.47,305.99 248.66,307.46 248.84,308.93 248.67,310.41 248.50,311.88 247.98,313.27 247.47,314.66 246.63,315.89 245.79,317.12 244.69,318.11 243.58,319.10 242.27,319.80 240.96,320.50 239.52,320.86 238.08,321.22 236.60,321.23 235.11,321.24 233.67,320.90 232.23,320.55 230.91,319.87 229.59,319.18 228.47,318.21 227.35,317.23 226.50,316.01 225.65,314.79 225.12,313.41 224.58,312.02 222.94,306.56 221.30,301.10 217.35,293.78 213.40,286.46 210.28,280.52 207.15,274.58 207.25,273.16 207.35,271.75 207.78,270.40 208.21,269.05 208.95,267.84 209.70,266.63 210.71,265.64 211.72,264.65 212.94,263.92 214.16,263.20 215.51,262.79 216.87,262.38 218.28,262.30 219.70,262.23 221.09,262.50 222.48,262.76 223.77,263.36 225.06,263.95 226.17,264.83 227.28,265.71 228.14,266.84 229.01,267.96 229.58,269.26 230.15,270.55 230.39,271.95 230.64,273.35 230.07,275.29 229.50,277.23 229.81,283.14 230.12,289.04 231.37,295.44 232.61,301.84 234.48,309.25 236.35,316.66 238.39,323.58 240.44,330.50 240.34,332.18 240.25,333.86 239.75,335.47 239.26,337.08 238.39,338.53 237.53,339.97 236.34,341.17 235.15,342.37 233.72,343.24 232.28,344.12 230.67,344.63 229.07,345.14 227.38,345.25 225.70,345.35 224.04,345.06 222.39,344.76 220.85,344.08 219.31,343.39 217.98,342.36 216.65,341.32 215.60,340.00 214.56,338.68 213.86,337.15 213.16,335.61 212.85,333.96 212.54,332.30 211.95,328.55 211.36,324.80 209.64,317.98 207.91,311.16 208.04,309.54 208.16,307.92 208.67,306.38 209.18,304.84 210.05,303.47 210.91,302.10 212.08,300.97 213.24,299.85 214.64,299.03 216.05,298.22 217.60,297.76 219.16,297.31 220.78,297.24 222.40,297.17 223.99,297.49 225.58,297.81 227.05,298.50 228.51,299.19 229.77,300.21 231.03,301.23 232.01,302.53 232.99,303.82 233.63,305.31 234.26,306.80 234.53,308.40 234.79,310.00 234.87,312.98 234.95,315.95 235.93,322.74 236.90,329.53 237.29,334.35 237.67,339.16 233.65,333.49 229.63,327.82 231.00,328.67 232.37,329.51 233.49,330.65 234.62,331.80 235.44,333.18 236.26,334.56 236.72,336.09 237.19,337.63 237.27,339.23 237.36,340.84 237.06,342.41 236.76,343.99 236.08,345.45 235.41,346.91 234.41,348.16 233.41,349.42 232.14,350.40 230.87,351.38 229.40,352.03 227.93,352.68 226.35,352.95 224.77,353.23 223.17,353.12 221.57,353.01 220.04,352.52 218.51,352.03 217.76,351.16 217.02,350.29 211.94,346.25 206.86,342.21 204.10,338.49 201.33,334.78 199.93,329.59 198.52,324.41 195.65,320.71 192.78,317.02 192.61,315.52 192.44,314.03 192.64,312.53 192.83,311.04 193.38,309.64 193.92,308.23 194.79,307.00 195.65,305.77 196.79,304.78 197.92,303.79 199.26,303.10 200.60,302.41 202.06,302.06 203.53,301.71 205.03,301.73 206.54,301.74 208.00,302.11 209.46,302.48 210.78,303.19 212.11,303.90 213.23,304.91 214.35,305.92 215.19,307.16 216.04,308.41 216.56,309.82 217.08,311.23 217.83,312.95 218.57,314.67 220.08,320.67 221.60,326.68 223.80,332.52 226.01,338.35 228.59,344.53 231.18,350.71 233.88,356.61 236.59,362.50 237.16,364.09 237.73,365.67 237.90,367.34 238.08,369.02 237.85,370.68 237.61,372.35 236.99,373.91 236.37,375.47 235.39,376.84 234.41,378.21 233.13,379.30 231.85,380.40 230.35,381.16 228.85,381.91 227.21,382.29 225.57,382.66 223.89,382.63 222.20,382.60 220.58,382.17 218.95,381.74 217.48,380.94 216.00,380.13 214.76,378.99 213.52,377.86 212.59,376.45 211.66,375.05 209.78,370.45 207.91,365.85 205.38,360.25 202.85,354.66 211.63,353.18 220.41,351.70 218.63,358.83 216.86,365.96 214.68,370.33 212.51,374.70 207.57,378.98 202.64,383.26 198.10,384.59 193.56,385.91 188.72,384.03 183.88,382.14 179.85,376.59 175.83,371.04 171.06,366.69 166.29,362.34 163.13,357.92 159.96,353.49 159.80,351.89 159.64,350.30 159.86,348.71 160.09,347.12 160.68,345.64 161.28,344.15 162.22,342.85 163.15,341.55 164.37,340.51 165.59,339.47 167.03,338.75 168.46,338.04 170.02,337.68 171.58,337.33 173.19,337.36 174.79,337.39 176.34,337.80 177.89,338.22 179.29,338.99 180.69,339.76 181.87,340.85 183.05,341.93 183.94,343.27 184.82,344.61 185.36,346.12 185.90,347.62 186.95,352.53 188.01,357.44 188.52,361.66 189.03,365.88 189.05,370.72 189.07,375.55 188.48,382.15 187.88,388.76 187.70,390.37 187.52,391.97 186.96,393.49 186.41,395.01 185.50,396.35 184.59,397.69 183.39,398.77 182.19,399.85 180.77,400.62 179.34,401.38 177.78,401.78 176.21,402.19 174.59,402.20 172.98,402.21 171.40,401.84 169.83,401.47 168.39,400.73 166.95,399.99 165.73,398.93 164.51,397.87 163.58,396.55 162.65,395.23 162.06,393.72 161.47,392.21 161.26,390.61 161.06,389.01 161.09,387.81 161.13,386.62 161.17,382.29 161.20,377.97 162.45,372.30 163.70,366.62 168.47,367.92 173.23,369.22 170.90,377.58 168.57,385.93 169.06,387.49 169.55,389.06 169.65,390.70 169.76,392.33 169.46,393.95 169.17,395.56 168.50,397.06 167.83,398.55 166.82,399.85 165.82,401.14 164.53,402.15 163.24,403.17 161.75,403.85 160.25,404.52 158.64,404.82 157.03,405.12 155.39,405.03 153.75,404.93 152.19,404.45 150.62,403.96 149.21,403.12 147.81,402.27 146.65,401.12 145.48,399.96 144.63,398.56 143.78,397.16 143.97,397.72 144.16,398.29 141.33,394.03 138.49,389.77 136.90,385.21 135.31,380.65 134.41,375.20 133.50,369.76 127.03,364.13 120.55,358.49 120.60,357.00 120.66,355.50 121.06,354.06 121.47,352.62 122.21,351.33 122.95,350.03 123.98,348.94 125.01,347.86 126.27,347.05 127.53,346.24 128.94,345.76 130.36,345.28 131.85,345.15 133.34,345.02 134.82,345.25 136.29,345.48 137.67,346.06 139.05,346.64 140.25,347.53 141.45,348.42 142.41,349.58 143.36,350.73 144.01,352.08 144.66,353.42 144.96,354.89 145.27,356.35 145.26,358.25 145.25,360.16 145.81,365.13 146.38,370.10 148.06,376.16 149.75,382.22 150.63,389.90 151.52,397.57 149.94,392.61 148.35,387.65 149.23,388.89 150.10,390.14 150.65,391.55 151.20,392.97 151.39,394.48 151.59,395.99 151.41,397.50 151.24,399.01 150.71,400.43 150.18,401.86 149.33,403.12 148.48,404.37 147.34,405.39 146.21,406.41 144.87,407.12 143.53,407.84 142.06,408.21 140.59,408.59 139.07,408.60 137.55,408.61 136.07,408.26 134.59,407.90 133.24,407.21 131.89,406.51 130.74,405.51 129.60,404.51 129.07,403.43 128.55,402.34 125.64,396.66 122.73,390.98 121.79,384.82 120.85,378.65 117.55,371.76 114.24,364.86 114.83,363.55 115.43,362.23 116.32,361.09 117.21,359.96 118.35,359.07 119.49,358.18 120.81,357.59 122.13,357.00 123.55,356.74 124.97,356.48 126.42,356.57 127.86,356.66 129.24,357.09 130.62,357.53 131.85,358.27 133.09,359.02 134.11,360.05 135.13,361.07 135.87,362.31 136.62,363.55 137.04,364.93 137.47,366.31 137.56,367.75 137.64,369.19 137.38,370.61 137.12,372.03 136.15,374.80 135.18,377.56 133.34,381.41 131.50,385.26 129.64,389.62 127.78,393.99 123.12,404.01 118.46,414.04 118.28,415.52 118.10,417.00 117.57,418.39 117.05,419.79 116.20,421.02 115.35,422.24 114.24,423.23 113.12,424.22 111.80,424.92 110.48,425.61 109.03,425.97 107.59,426.33 106.10,426.33 104.60,426.33 103.16,425.98 101.71,425.62 100.39,424.93 99.07,424.24 97.95,423.25 96.83,422.26 95.98,421.03 95.13,419.81 94.60,418.41 94.07,417.02 93.89,415.54 93.71,414.06 93.35,413.32 92.98,412.57 93.10,407.09 93.22,401.61 93.16,396.85 93.10,392.10 92.87,383.18 92.63,374.26 93.13,369.42 93.63,364.57 94.45,363.34 95.27,362.11 96.36,361.10 97.45,360.10 98.74,359.39 100.04,358.68 101.47,358.30 102.90,357.92 104.38,357.89 105.86,357.87 107.30,358.19 108.74,358.52 110.06,359.18 111.39,359.85 112.51,360.81 113.64,361.77 114.50,362.97 115.36,364.17 115.91,365.54 116.46,366.92 116.67,368.38 116.87,369.85 116.72,371.32 116.57,372.79 116.07,374.18 115.57,375.58 115.18,376.59 114.79,377.59 111.22,382.00 107.66,386.41 102.50,391.80 97.34,397.20 93.21,402.67 89.08,408.14 88.55,409.46 88.03,410.78 87.20,411.93 86.37,413.08 85.29,414.01 84.21,414.93 82.93,415.57 81.66,416.20 80.28,416.52 78.89,416.83 77.47,416.80 76.05,416.78 74.68,416.41 73.31,416.04 72.06,415.36 70.82,414.68 69.77,413.71 68.72,412.75 67.94,411.57 67.15,410.38 66.68,409.05 66.20,407.71 66.05,406.30 65.91,404.88 66.10,403.47 66.30,402.07 66.60,401.55 66.90,401.03 69.29,395.01 71.69,388.99 73.56,384.53 75.42,380.07 77.40,373.60 79.38,367.14 81.71,360.24 84.05,353.34 86.84,349.22 89.63,345.09 90.80,344.15 91.97,343.20 93.34,342.56 94.71,341.92 96.19,341.62 97.67,341.33 99.18,341.40 100.68,341.47 102.13,341.89 103.58,342.32 104.88,343.08 106.18,343.84 107.27,344.90 108.35,345.95 109.15,347.23 109.95,348.51 110.42,349.94 110.89,351.37 111.00,352.88 111.12,354.38 110.87,355.87 110.62,357.36 110.02,358.75 109.42,360.13 108.51,361.33 107.59,362.53 106.69,363.75 105.78,364.97 101.70,369.53 97.62,374.08 94.19,378.83 90.75,383.58 85.87,388.74 81.00,393.90 83.86,388.58 86.72,383.26 86.53,384.79 86.34,386.33 85.79,387.78 85.24,389.23 84.36,390.50 83.48,391.78 82.32,392.81 81.16,393.83 79.78,394.55 78.41,395.27 76.90,395.64 75.40,396.01 73.85,396.01 72.30,396.00 70.80,395.63 69.29,395.26 67.92,394.54 66.55,393.82 65.39,392.79 64.23,391.76 63.35,390.48 62.47,389.20 61.92,387.75 61.38,386.30 61.19,384.77 61.01,383.23 61.07,381.96 61.13,380.69 61.21,374.76 61.28,368.82 61.23,364.34 61.18,359.86 61.36,352.64 61.55,345.42 63.31,340.36 65.08,335.29 66.22,334.29 67.36,333.29 68.71,332.59 70.06,331.89 71.54,331.53 73.01,331.17 74.53,331.18 76.05,331.19 77.53,331.56 79.00,331.93 80.34,332.64 81.68,333.35 82.81,334.37 83.95,335.38 84.80,336.63 85.66,337.89 86.19,339.31 86.72,340.73 86.90,342.24 87.08,343.75 86.89,345.26 86.70,346.77 86.15,348.18 85.61,349.60 84.74,350.85 83.87,352.09 80.84,354.46 77.82,356.83 72.02,361.87 66.22,366.90 59.33,371.46 52.43,376.02 45.86,375.52 39.29,375.03 41.09,363.23 42.88,351.43 47.13,344.52 51.39,337.61 54.95,332.38 58.51,327.16 59.23,325.96 59.95,324.77 60.93,323.78 61.91,322.79 63.10,322.06 64.30,321.34 65.63,320.92 66.96,320.50 68.35,320.41 69.74,320.32 71.11,320.57 72.49,320.82 73.76,321.39 75.03,321.95 76.14,322.81 77.24,323.67 78.10,324.76 78.96,325.86 79.54,327.13 80.12,328.40 80.37,329.77 80.63,331.14 80.55,332.54 80.47,333.93 80.05,335.26 79.64,336.59 79.76,334.86 79.87,333.13 76.51,340.12 73.15,347.11 67.51,351.14 61.87,355.17 57.68,359.34 53.48,363.51 47.63,367.45 41.79,371.38 41.06,372.36 40.32,373.34 39.38,374.11 38.44,374.88 37.34,375.40 36.24,375.93 35.04,376.17 33.85,376.42 32.63,376.37 31.41,376.32 30.24,375.99 29.07,375.65 28.01,375.04 26.96,374.43 26.08,373.59 25.20,372.75 24.54,371.72 23.89,370.69 23.50,369.53 23.12,368.38 23.02,367.16 22.92,365.95 23.11,364.74 23.30,363.54 23.78,362.42 24.26,361.30 24.90,360.77 25.55,360.25 29.05,354.91 32.56,349.57 35.83,344.48 39.10,339.39 43.13,332.63 47.16,325.88 49.65,321.02 52.15,316.17 54.80,311.00 57.46,305.84 58.59,305.27 59.72,304.71 60.95,304.43 62.18,304.15 63.44,304.17 64.70,304.19 65.92,304.52 67.14,304.84 68.25,305.45 69.35,306.05 70.28,306.91 71.21,307.76 71.91,308.81 72.61,309.86 73.04,311.05 73.46,312.24 73.59,313.49 73.72,314.75 73.55,316.00 73.37,317.25 72.90,318.42 72.44,319.59 71.70,320.62 70.96,321.64 70.00,322.46 69.05,323.28 67.65,324.09 66.26,324.90 60.87,327.82 55.48,330.74 50.86,333.73 46.24,336.71 40.59,340.02 34.93,343.34 28.21,345.61 21.49,347.89 20.76,348.63 20.03,349.38 19.14,349.93 18.25,350.48 17.26,350.80 16.27,351.12 15.22,351.19 14.18,351.27 13.16,351.09 12.13,350.91 11.17,350.49 10.22,350.08 9.39,349.44 8.56,348.81 7.91,347.99 7.26,347.18 6.82,346.23 6.38,345.28 6.18,344.26 5.98,343.23 6.03,342.19 6.09,341.15 6.39,340.15 6.69,339.15 7.22,338.25 7.75,337.35 7.37,338.17 7.00,338.98 9.57,335.13 12.14,331.27 15.60,327.61 19.06,323.94 24.66,315.72 30.25,307.49 37.07,299.56 43.88,291.63 49.32,284.95 54.76,278.27 62.27,271.86 69.78,265.44 70.80,264.79 71.83,264.14 72.98,263.76 74.13,263.38 75.34,263.28 76.55,263.18 77.75,263.38 78.95,263.57 80.07,264.05 81.18,264.52 82.15,265.25 83.12,265.98 83.89,266.92 84.66,267.86 85.18,268.96 85.70,270.06 85.94,271.25 86.18,272.44 86.13,273.65 86.09,274.86 85.75,276.03 85.41,277.20 84.80,278.25 84.19,279.30 83.35,280.17 82.51,281.05 78.45,284.30 74.39,287.56 70.61,290.47 66.83,293.37 60.63,299.36 54.42,305.34 47.53,309.29 40.64,313.23 39.92,314.15 39.20,315.07 38.27,315.79 37.35,316.51 36.28,316.98 35.22,317.46 34.07,317.67 32.92,317.88 31.75,317.80 30.58,317.73 29.47,317.38 28.35,317.03 27.35,316.42 26.35,315.81 25.53,314.98 24.70,314.16 24.10,313.15 23.50,312.15 23.15,311.03 22.81,309.92 22.74,308.75 22.67,307.58 22.89,306.43 23.10,305.28 23.58,304.22 24.07,303.15 26.03,300.16 27.99,297.16 31.66,292.47 35.34,287.78 40.41,281.85 45.48,275.91 54.93,265.04 64.38,254.16 67.84,250.28 71.29,246.40 75.07,242.81 78.84,239.22 80.09,238.83 81.35,238.45 82.65,238.37 83.96,238.30 85.25,238.54 86.53,238.78 87.73,239.32 88.92,239.87 89.95,240.68 90.97,241.49 91.78,242.52 92.58,243.56 93.11,244.75 93.65,245.95 93.88,247.24 94.11,248.52 94.03,249.83 93.94,251.14 93.55,252.39 93.15,253.63 92.47,254.75 91.79,255.87 90.86,256.79 89.93,257.72 88.81,258.39 87.69,259.06 85.53,258.85 83.37,258.65 80.16,261.57 76.94,264.49 73.01,267.74 69.07,270.99 62.98,276.04 56.88,281.09 51.98,284.33 47.08,287.58 42.79,290.10 38.49,292.62 37.43,293.36 36.36,294.10 35.14,294.56 33.93,295.03 32.64,295.19 31.35,295.35 30.06,295.19 28.77,295.04 27.55,294.58 26.33,294.12 25.26,293.39 24.19,292.65 23.33,291.68 22.46,290.71 21.85,289.56 21.25,288.41 20.93,287.15 20.62,285.89 20.62,284.58 20.61,283.28 20.92,282.02 21.23,280.76 21.83,279.61 22.43,278.45 23.29,277.48 24.15,276.50 26.07,275.90 27.99,275.29 32.41,271.34 36.83,267.39 40.67,263.82 44.51,260.24 52.13,251.75 59.74,243.26 63.61,238.10 67.48,232.94 73.78,226.17 80.07,219.40 82.41,215.71 84.75,212.01 85.87,211.56 86.99,211.10 88.19,210.93 89.38,210.76 90.59,210.87 91.79,210.99 92.93,211.39 94.07,211.79 95.08,212.46 96.09,213.12 96.91,214.01 97.74,214.89 98.32,215.95 98.91,217.01 99.23,218.17 99.54,219.34 99.57,220.55 99.60,221.76 99.34,222.94 99.08,224.12 98.54,225.20 98.00,226.29 97.22,227.21 96.44,228.13 95.46,228.84 94.49,229.55 91.08,230.60 87.68,231.65 82.74,235.00 77.79,238.35 70.84,243.59 63.88,248.83 56.72,255.61 49.56,262.39 44.31,264.84 39.06,267.29 38.40,268.64 37.75,269.99 36.79,271.15 35.83,272.30 34.62,273.19 33.41,274.08 32.02,274.66 30.63,275.24 29.15,275.46 27.66,275.69 26.17,275.56 24.67,275.42 23.25,274.93 21.83,274.45 20.57,273.63 19.30,272.82 18.27,271.72 17.24,270.63 16.50,269.32 15.76,268.02 15.36,266.57 14.95,265.12 14.91,263.62 14.86,262.12 15.17,260.65 15.49,259.18 17.57,256.22 19.66,253.26 24.82,247.61 29.99,241.95 36.19,237.37 42.40,232.79 49.52,226.16 56.63,219.54 60.87,215.73 65.12,211.92 66.31,211.16 67.50,210.40 68.83,209.94 70.17,209.49 71.58,209.37 72.99,209.24 74.38,209.46 75.78,209.68 77.08,210.23 78.38,210.78 79.52,211.62 80.65,212.46 81.55,213.55 82.45,214.64 83.06,215.91 83.68,217.19 83.97,218.57 84.26,219.95 84.21,221.36 84.16,222.78 83.77,224.13 83.39,225.49 82.69,226.72 81.99,227.95 81.02,228.97 80.04,230.00 79.03,230.31 78.02,230.63 73.55,234.08 69.08,237.53 64.34,241.89 59.59,246.26 54.43,251.03 49.26,255.80 44.16,259.14 39.06,262.48 38.03,263.61 37.00,264.75 35.73,265.60 34.46,266.46 33.02,266.98 31.58,267.51 30.06,267.67 28.54,267.84 27.02,267.64 25.50,267.43 24.08,266.87 22.65,266.31 21.40,265.43 20.16,264.54 19.15,263.38 18.15,262.22 17.46,260.86 16.76,259.49 16.42,258.00 16.07,256.51 16.09,254.98 16.11,253.45 16.49,251.97 16.88,250.49 17.60,249.14 18.33,247.79 21.19,244.72 24.04,241.65 26.71,238.18 29.38,234.72 34.38,228.58 39.38,222.44 42.82,217.31 46.27,212.18 51.07,207.18 55.86,202.18 57.36,202.05 58.85,201.93 60.33,202.17 61.80,202.40 63.18,202.99 64.56,203.57 65.76,204.47 66.96,205.37 67.90,206.52 68.85,207.68 69.50,209.03 70.14,210.38 70.44,211.85 70.75,213.31 70.69,214.81 70.63,216.31 70.22,217.74 69.81,219.18 69.06,220.48 68.31,221.78 67.28,222.86 66.24,223.94 64.98,224.74 63.72,225.55 62.30,226.02 60.88,226.50 56.49,227.67 52.11,228.85 46.10,227.92 40.09,226.99 39.20,228.05 38.32,229.11 37.21,229.93 36.09,230.75 34.82,231.28 33.54,231.80 32.18,232.01 30.81,232.22 29.44,232.09 28.06,231.97 26.76,231.52 25.45,231.06 24.29,230.31 23.13,229.56 22.19,228.56 21.24,227.55 20.56,226.35 19.88,225.15 19.51,223.82 19.14,222.49 19.10,221.10 19.06,219.72 19.35,218.37 19.64,217.02 20.25,215.78 20.85,214.54 23.17,210.99 25.49,207.43 32.21,202.81 38.94,198.19 42.92,194.52 46.90,190.85 51.37,186.18 55.84,181.51 57.07,181.04 58.30,180.57 59.61,180.41 60.92,180.25 62.23,180.41 63.54,180.57 64.77,181.04 66.01,181.51 67.09,182.26 68.18,183.01 69.05,184.00 69.92,184.98 70.54,186.15 71.15,187.32 71.47,188.60 71.78,189.88 71.78,191.20 71.78,192.52 71.46,193.80 71.15,195.08 70.53,196.25 69.92,197.41 69.05,198.40 68.17,199.39 67.09,200.14 66.00,200.89 60.82,202.79 55.64,204.69 54.80,205.52 53.97,206.35 52.96,206.96 51.95,207.56 50.82,207.91 49.69,208.25 48.52,208.32 47.34,208.38 46.18,208.17 45.03,207.95 43.95,207.46 42.88,206.97 41.96,206.24 41.03,205.51 40.31,204.58 39.59,203.65 39.11,202.57 38.63,201.50 38.43,200.34 38.22,199.18 38.30,198.00 38.37,196.83 38.73,195.70 39.08,194.58 39.70,193.58 40.31,192.57 42.43,189.84 44.55,187.12 48.50,183.65 52.46,180.18 58.00,176.26 63.54,172.35 69.99,167.85 76.43,163.36 84.50,159.33 92.56,155.30 93.67,155.03 94.78,154.76 95.92,154.77 97.07,154.77 98.18,155.05 99.29,155.33 100.30,155.87 101.31,156.40 102.16,157.16 103.02,157.93 103.66,158.87 104.31,159.81 104.71,160.89 105.11,161.96 105.25,163.09 105.38,164.23 105.24,165.37 105.10,166.50 104.69,167.57 104.28,168.64 103.62,169.58 102.97,170.52 102.11,171.27 101.25,172.03 100.23,172.55 99.22,173.08 96.43,174.07 93.63,175.05 88.76,176.71 83.90,178.37 76.13,182.71 68.36,187.04 60.25,190.73 52.14,194.41 45.12,197.24 38.09,200.08 32.93,199.71 27.77,199.34 32.60,198.53 37.42,197.71 36.22,198.54 35.01,199.37 33.64,199.88 32.27,200.40 30.82,200.57 29.37,200.74 27.92,200.57 26.46,200.39 25.10,199.86 23.73,199.34 22.53,198.51 21.33,197.67 20.36,196.58 19.39,195.48 18.72,194.18 18.04,192.89 17.69,191.47 17.35,190.04 17.35,188.58 17.35,187.12 17.71,185.70 18.06,184.28 18.74,182.99 19.42,181.69 20.40,180.60 21.37,179.51 23.05,178.60 24.74,177.68 29.97,172.96 35.20,168.24 39.08,165.48 42.96,162.73 53.67,161.70 64.38,160.68 64.75,161.98 65.12,163.29 65.17,164.65 65.22,166.00 64.94,167.33 64.66,168.66 64.07,169.88 63.49,171.11 62.62,172.15 61.76,173.20 60.67,174.01 59.58,174.82 58.33,175.35 57.08,175.87 55.74,176.08 54.40,176.29 53.05,176.18 51.69,176.06 50.41,175.63 49.12,175.19 47.98,174.46 46.84,173.73 45.90,172.75 44.97,171.76 44.29,170.59 43.62,169.41 45.30,170.97 46.99,172.54 53.37,173.01 59.75,173.48 58.58,174.18 57.41,174.88 56.11,175.28 54.81,175.69 53.45,175.76 52.09,175.84 50.75,175.59 49.41,175.35 48.17,174.78 46.93,174.22 45.86,173.38 44.79,172.54 43.95,171.46 43.11,170.39 42.56,169.14 42.00,167.90 41.76,166.56 41.52,165.22 41.60,163.86 41.69,162.50 42.10,161.20 42.50,159.90 43.21,158.74 43.92,157.57 44.89,156.61 45.85,155.65 48.23,154.47 50.60,153.29 56.31,150.54 62.02,147.80 69.97,144.88 77.92,141.96 85.04,139.29 92.15,136.62 93.24,136.76 94.34,136.89 95.37,137.29 96.40,137.69 97.30,138.32 98.21,138.95 98.94,139.78 99.67,140.61 100.17,141.59 100.68,142.57 100.94,143.64 101.20,144.71 101.20,145.82 101.19,146.92 100.92,147.99 100.65,149.06 100.13,150.03 99.62,151.01 98.88,151.83 98.15,152.65 97.23,153.28 96.32,153.90 95.29,154.29 94.26,154.67 93.16,154.80 92.06,154.93 87.40,154.39 82.73,153.86 77.01,153.61 71.30,153.36 63.70,153.40 56.10,153.45 47.53,153.69 38.96,153.94 29.26,152.70 19.56,151.45 18.61,151.67 17.65,151.89 16.67,151.88 15.69,151.86 14.74,151.61 13.79,151.36 12.93,150.89 12.07,150.42 11.35,149.76 10.62,149.10 10.08,148.28 9.53,147.47 9.20,146.55 8.87,145.62 8.76,144.65 8.66,143.67 8.79,142.70 8.93,141.73 9.29,140.82 9.65,139.91 10.22,139.11 10.79,138.31 11.54,137.67 12.28,137.03 13.16,136.59 14.03,136.15 13.19,136.85 12.35,137.56 16.58,135.75 20.80,133.94 27.11,132.84 33.42,131.73 44.58,129.28 55.74,126.83 70.23,124.18 84.72,121.53 99.72,119.50 114.72,117.47 127.98,117.45 141.24,117.44 143.99,124.10 146.74,130.75 143.28,134.40 139.83,138.05 133.19,139.61 126.56,141.18 120.92,142.33 115.28,143.47 108.47,143.91 101.66,144.34 100.68,144.51 99.69,144.69 98.69,144.62 97.70,144.55 96.74,144.25 95.79,143.94 94.93,143.42 94.08,142.90 93.38,142.19 92.68,141.47 92.16,140.61 91.65,139.75 91.36,138.80 91.07,137.84 91.01,136.84 90.96,135.84 91.15,134.86 91.33,133.87 91.75,132.96 92.17,132.05 92.79,131.27 93.41,130.49 94.20,129.87 94.99,129.26 95.91,128.86 96.82,128.45 98.82,127.98 100.81,127.51 106.82,125.93 112.83,124.35 122.65,121.77 132.47,119.20 148.38,115.43 164.30,111.67 182.06,107.02 199.83,102.37 212.53,98.67 225.23,94.96 231.20,93.48 237.18,92.00 238.69,91.98 240.19,91.95 241.66,92.29 243.13,92.63 244.48,93.30 245.82,93.98 246.97,94.96 248.11,95.94 248.99,97.17 249.86,98.39 250.42,99.79 250.98,101.19 251.19,102.68 251.39,104.18 251.24,105.67 251.08,107.17 250.57,108.59 250.06,110.01 249.22,111.26 248.39,112.52 247.28,113.53 246.17,114.55 244.84,115.27 243.52,116.00 242.06,116.38 240.61,116.77 238.89,116.77 237.18,116.77 230.87,117.05 224.56,117.32 220.20,117.19 215.84,117.05 209.68,118.39 203.51,119.73 198.31,121.94 193.11,124.15 187.88,126.54 182.66,128.94 176.91,132.02 171.16,135.10 163.19,138.73 155.22,142.36 154.11,143.03 152.99,143.70 151.74,144.08 150.50,144.46 149.20,144.53 147.90,144.60 146.62,144.36 145.34,144.12 144.16,143.58 142.97,143.04 141.95,142.23 140.93,141.42 140.13,140.39 139.34,139.36 138.81,138.17 138.28,136.98 138.05,135.70 137.83,134.41 137.91,133.12 138.00,131.82 138.39,130.58 138.79,129.33 139.47,128.22 140.15,127.11 141.07,126.20 142.00,125.28 143.38,124.77 144.76,124.26 150.01,120.66 155.27,117.07 159.38,114.23 163.49,111.38 170.98,106.77 178.47,102.16 183.43,98.77 188.38,95.38 189.42,95.32 190.45,95.26 191.47,95.45 192.48,95.64 193.43,96.07 194.37,96.50 195.18,97.15 195.99,97.79 196.62,98.60 197.26,99.42 197.68,100.37 198.10,101.31 198.28,102.33 198.46,103.35 198.39,104.38 198.33,105.42 198.01,106.40 197.70,107.39 197.16,108.27 196.62,109.16 195.89,109.88 195.15,110.61 194.26,111.14 193.38,111.67 192.39,111.98 191.40,112.28 187.20,112.85 183.00,113.42 178.31,114.27 173.62,115.11 167.78,116.92 161.94,118.72 153.43,121.90 144.91,125.09 136.30,128.80 127.68,132.51 116.59,137.34 105.50,142.17 94.50,146.74 83.50,151.31 69.98,154.29 56.46,157.27 55.67,157.97 54.88,158.66 53.95,159.15 53.01,159.64 51.99,159.88 50.97,160.13 49.91,160.13 48.86,160.12 47.84,159.87 46.82,159.61 45.89,159.12 44.96,158.63 44.17,157.93 43.39,157.23 42.79,156.36 42.20,155.49 41.83,154.50 41.46,153.52 41.33,152.47 41.21,151.43 41.34,150.38 41.47,149.34 41.85,148.35 42.23,147.37 42.83,146.51 43.43,145.64 46.49,142.50 49.56,139.35 53.76,136.93 57.96,134.52 64.19,129.73 70.42,124.94 78.78,118.52 87.14,112.10 92.84,107.39 98.55,102.67 106.11,98.07 113.68,93.47 114.55,92.99 115.42,92.51 116.38,92.26 117.34,92.00 118.33,91.98 119.32,91.96 120.29,92.18 121.26,92.40 122.14,92.85 123.03,93.29 123.79,93.94 124.54,94.58 125.12,95.39 125.70,96.19 126.07,97.11 126.44,98.03 126.57,99.02 126.71,100.00 126.61,100.99 126.51,101.97 126.17,102.91 125.84,103.84 125.29,104.67 124.74,105.50 124.01,106.17 123.28,106.84 123.12,107.31 122.96,107.77 119.29,110.11 115.61,112.45 110.55,115.55 105.49,118.64 98.38,124.17 91.26,129.70 79.45,137.56 67.64,145.42 58.10,151.63 48.55,157.84 41.99,160.01 35.43,162.17 34.55,162.77 33.66,163.37 32.66,163.74 31.65,164.11 30.59,164.23 29.53,164.35 28.46,164.21 27.40,164.08 26.40,163.69 25.41,163.30 24.53,162.68 23.66,162.07 22.95,161.26 22.25,160.45 21.76,159.50 21.27,158.55 21.03,157.51 20.78,156.47 20.79,155.40 20.80,154.32 21.06,153.29 21.33,152.25 21.83,151.31 22.34,150.36 23.06,149.57 23.77,148.77 27.10,146.08 30.42,143.39 34.39,140.21 38.35,137.03 43.37,133.24 48.40,129.45 55.40,123.34 62.40,117.23 71.11,111.21 79.82,105.19 85.27,101.83 90.72,98.47 91.58,98.01 92.43,97.56 93.37,97.32 94.32,97.08 95.29,97.08 96.26,97.07 97.20,97.30 98.14,97.53 99.01,97.98 99.87,98.42 100.60,99.06 101.33,99.70 101.88,100.50 102.44,101.30 102.79,102.20 103.13,103.11 103.26,104.07 103.38,105.04 103.26,106.00 103.15,106.96 102.81,107.87 102.47,108.78 101.92,109.58 101.38,110.38 100.65,111.03 99.93,111.68 97.79,112.01 95.66,112.35 90.65,115.43 85.65,118.50 78.49,122.30 71.33,126.09 62.95,130.32 54.57,134.54 42.01,140.31 29.44,146.09 18.94,151.06 8.44,156.03 -2.72,155.23 -13.88,154.42 -14.88,149.30 -15.89,144.17 -13.13,140.60 -10.37,137.03 -6.85,133.89 -3.33,130.75 1.97,124.72 7.27,118.69 15.20,112.89 23.13,107.09 24.02,106.52 24.91,105.95 25.91,105.61 26.91,105.28 27.96,105.19 29.01,105.10 30.06,105.27 31.10,105.43 32.07,105.84 33.04,106.25 33.89,106.88 34.73,107.51 35.40,108.33 36.07,109.14 36.53,110.10 36.98,111.05 37.20,112.08 37.41,113.11 37.37,114.17 37.33,115.22 37.04,116.24 36.75,117.25 36.23,118.17 35.71,119.08 34.98,119.85 34.25,120.61 31.47,123.12 28.69,125.64 23.97,129.28 19.25,132.91 10.92,140.40 2.59,147.88 -8.45,157.07 -19.49,166.26 -31.35,171.50 -43.20,176.74 -49.46,174.64 -55.72,172.54 -56.04,165.44 -56.37,158.33 -52.94,155.70 -49.52,153.06 -44.82,149.38 -40.13,145.71 -33.20,139.29 -26.28,132.87 -20.28,126.70 -14.29,120.53 -11.10,117.62 -7.92,114.71 -6.91,114.06 -5.90,113.41 -4.76,113.02 -3.62,112.63 -2.42,112.52 -1.23,112.41 -0.04,112.60 1.14,112.78 2.25,113.24 3.36,113.71 4.33,114.42 5.29,115.13 6.06,116.06 6.83,116.98 7.35,118.07 7.88,119.15 8.13,120.32 8.38,121.50 8.34,122.70 8.30,123.90 7.97,125.06 7.65,126.22 7.06,127.26 6.46,128.31 5.64,129.18 4.81,130.06 1.11,132.31 -2.59,134.56 -8.17,137.89 -13.75,141.23 -20.32,143.78 -26.88,146.33 -36.71,149.90 -46.53,153.47 -55.51,154.97 -64.48,156.47 -69.08,155.68 -73.69,154.89 -77.74,146.03 -81.80,137.17 -75.89,131.92 -69.97,126.67 -65.76,124.49 -61.55,122.31 -56.95,120.27 -52.35,118.22 -44.93,115.59 -37.51,112.96 -36.08,112.62 -34.65,112.27 -33.18,112.28 -31.70,112.29 -30.28,112.65 -28.85,113.02 -27.55,113.71 -26.25,114.40 -25.16,115.39 -24.06,116.37 -23.23,117.59 -22.41,118.80 -21.89,120.18 -21.38,121.56 -21.21,123.03 -21.05,124.49 -21.23,125.95 -21.42,127.41 -21.95,128.78 -22.48,130.15 -23.33,131.36 -24.17,132.57 -25.28,133.53 -26.39,134.50 -27.70,135.18 -29.00,135.85 -29.90,136.30 -30.79,136.74 -38.75,139.04 -46.71,141.33 -52.81,142.99 -58.90,144.66 -66.73,144.96 -74.56,145.26 -76.05,145.33 -77.53,145.39 -78.99,145.10 -80.45,144.80 -81.79,144.17 -83.14,143.54 -84.30,142.60 -85.45,141.66 -86.35,140.48 -87.25,139.29 -87.83,137.92 -88.42,136.56 -88.66,135.09 -88.91,133.62 -88.79,132.14 -88.68,130.66 -88.21,129.24 -87.74,127.83 -86.95,126.57 -86.16,125.31 -85.09,124.28 -84.02,123.24 -82.74,122.50 -81.45,121.75 -80.02,121.33 -78.59,120.91 -77.08,120.83 -75.57,120.75 -69.50,119.66 -63.42,118.57 -58.50,117.20 -53.59,115.83 -43.79,114.97 -34.00,114.11 -32.65,113.44 -31.30,112.77 -29.83,112.44 -28.36,112.11 -26.85,112.14 -25.34,112.17 -23.89,112.57 -22.43,112.96 -21.11,113.69 -19.79,114.42 -18.69,115.44 -17.58,116.46 -16.75,117.72 -15.92,118.98 -15.42,120.40 -14.92,121.82 -14.77,123.32 -14.62,124.82 -14.83,126.31 -15.05,127.81 -15.61,129.20 -16.18,130.60 -17.06,131.82 -17.94,133.04 -19.09,134.02 -20.24,134.99 -25.09,137.49 -29.95,140.00 -34.02,141.57 -38.10,143.14 -46.27,146.08 -54.45,149.03 -55.92,149.26 -57.39,149.49 -58.87,149.36 -60.35,149.22 -61.76,148.74 -63.17,148.26 -64.42,147.45 -65.67,146.65 -66.69,145.57 -67.72,144.49 -68.45,143.19 -69.18,141.90 -69.59,140.46 -69.99,139.03 -70.04,137.54 -70.08,136.06 -69.77,134.60 -69.46,133.14 -68.82,131.81 -68.17,130.47 -67.22,129.32 -66.27,128.18 -65.07,127.29 -63.87,126.41 -62.50,125.84 -61.12,125.26 -56.86,124.48 -52.59,123.71 -47.79,123.18 -42.99,122.65 -37.73,120.70 -32.46,118.75 -28.24,117.69 -24.02,116.64 -18.95,115.02 -13.88,113.40 -12.47,113.37 -11.06,113.34 -9.68,113.65 -8.31,113.96 -7.05,114.59 -5.78,115.22 -4.71,116.14 -3.64,117.05 -2.81,118.19 -1.99,119.34 -1.46,120.64 -0.94,121.95 -0.74,123.35 -0.54,124.74 -0.68,126.15 -0.82,127.55 -1.30,128.88 -1.77,130.20 -2.55,131.38 -3.32,132.56 -4.36,133.51 -5.40,134.47 -6.63,135.15 -7.87,135.83 -9.23,136.19 -10.59,136.56 -12.65,137.09 -14.71,137.61 -19.83,138.64 -24.95,139.66 -29.24,132.00 -33.54,124.33 -29.57,120.11 -25.60,115.89 -21.57,113.97 -17.53,112.04 -11.80,108.95 -6.07,105.87 1.61,101.92 9.31,97.97 14.88,96.95 20.45,95.92 27.25,94.28 34.06,92.64 41.46,96.56 48.85,100.48 46.38,108.39 43.90,116.30 39.49,119.35 35.08,122.39 27.64,122.20 20.19,122.01 18.71,116.82 17.22,111.63 21.78,105.93 26.34,100.24 30.74,94.73 35.14,89.22 42.81,81.53 50.47,73.84 59.16,66.10 67.84,58.36 68.91,58.13 69.98,57.90 71.07,57.93 72.17,57.96 73.22,58.25 74.28,58.54 75.23,59.07 76.18,59.61 76.98,60.36 77.78,61.11 78.38,62.02 78.97,62.94 79.33,63.97 79.69,65.01 79.79,66.10 79.89,67.19 79.73,68.27 79.57,69.35 79.15,70.36 78.74,71.37 78.09,72.25 77.44,73.14 76.60,73.84 75.77,74.54 74.78,75.02 73.80,75.50 68.29,77.01 62.79,78.52 56.51,81.51 50.23,84.51 41.74,89.08 33.25,93.65 25.37,98.65 17.49,103.64 11.23,105.26 4.96,106.88 1.39,104.56 -2.18,102.24 -2.38,96.57 -2.58,90.89 2.76,86.47 8.11,82.04 12.68,77.36 17.25,72.68 23.76,66.09 30.27,59.49 39.74,51.05 49.21,42.60 50.25,41.83 51.29,41.07 52.48,40.57 53.67,40.07 54.95,39.88 56.22,39.68 57.51,39.80 58.79,39.91 60.02,40.33 61.24,40.75 62.32,41.45 63.41,42.15 64.29,43.09 65.18,44.02 65.82,45.15 66.45,46.27 66.80,47.51 67.15,48.76 67.19,50.05 67.23,51.34 66.96,52.60 66.69,53.86 66.13,55.03 65.57,56.19 64.74,57.18 63.92,58.17 64.41,51.59 64.91,45.01 59.96,54.39 55.02,63.77 51.03,66.36 47.04,68.96 42.17,72.07 37.31,75.18 32.97,78.29 28.62,81.40 24.49,83.67 20.36,85.93 13.86,82.26 7.36,78.58 11.77,70.29 16.18,61.99 20.90,56.69 25.63,51.40 32.23,42.90 38.83,34.41 45.04,27.31 51.26,20.21 55.05,17.72 58.84,15.24 59.96,14.75 61.08,14.27 62.28,14.07 63.48,13.86 64.70,13.96 65.92,14.05 67.07,14.43 68.23,14.81 69.27,15.45 70.30,16.10 71.15,16.98 72.00,17.85 72.62,18.90 73.23,19.96 73.58,21.13 73.92,22.29 73.98,23.51 74.03,24.73 73.80,25.93 73.56,27.12 73.04,28.23 72.52,29.33 71.76,30.28 70.99,31.23 70.02,31.97 69.05,32.70 66.57,34.09 64.09,35.48 60.47,38.04 56.84,40.60 51.10,45.39 45.36,50.17 38.78,55.96 32.20,61.74 24.30,65.51 16.40,69.27 10.94,66.71 5.47,64.15 5.97,56.05 6.48,47.96 10.62,42.66 14.76,37.36 18.59,31.53 22.43,25.71 26.76,21.12 31.10,16.53 34.41,13.67 37.71,10.82 41.77,8.96 45.82,7.10 46.83,6.56 47.85,6.02 48.96,5.74 50.07,5.46 51.22,5.45 52.36,5.45 53.48,5.72 54.59,5.98 55.61,6.51 56.63,7.04 57.49,7.79 58.35,8.55 59.01,9.49 59.67,10.43 60.08,11.50 60.49,12.56 60.64,13.70 60.78,14.84 60.65,15.98 60.52,17.12 60.12,18.19 59.72,19.27 59.08,20.21 58.43,21.16 57.58,21.93 56.72,22.69 54.76,24.06 52.80,25.44 48.55,27.28 44.30,29.13 38.25,32.05 32.20,34.98 23.90,39.60 15.59,44.22 9.34,46.13 3.09,48.04 2.34,48.87 1.59,49.69 0.67,50.31 -0.25,50.92 -1.30,51.30 -2.34,51.68 -3.45,51.80 -4.55,51.92 -5.66,51.77 -6.76,51.62 -7.79,51.21 -8.83,50.80 -9.73,50.15 -10.64,49.51 -11.37,48.66 -12.09,47.82 -12.59,46.83 -13.10,45.83 -13.35,44.75 -13.60,43.66 -13.58,42.55 -13.56,41.44 -13.28,40.36 -13.00,39.29 -12.47,38.31 -11.94,37.33 -12.28,38.46 -12.62,39.60 -7.48,33.81 -2.35,28.02 2.95,23.30 8.25,18.58 16.48,12.07 24.70,5.55 31.28,1.69 37.86,-2.16 46.35,-5.19 54.84,-8.21 55.97,-8.35 57.11,-8.48 58.24,-8.33 59.37,-8.19 60.44,-7.78 61.50,-7.37 62.44,-6.72 63.38,-6.06 64.13,-5.20 64.88,-4.35 65.41,-3.33 65.93,-2.32 66.20,-1.21 66.47,-0.10 66.46,1.04 66.46,2.18 66.18,3.28 65.90,4.39 65.36,5.40 64.83,6.41 64.06,7.26 63.30,8.11 62.36,8.75 61.42,9.40 60.35,9.80 59.28,10.20 55.74,10.74 52.21,11.29 47.16,12.86 42.11,14.43 35.71,16.61 29.31,18.79 21.05,22.91 12.78,27.02 7.50,28.23 2.21,29.43 1.18,29.84 0.14,30.24 -0.96,30.38 -2.06,30.52 -3.17,30.39 -4.27,30.27 -5.31,29.88 -6.36,29.49 -7.28,28.87 -8.20,28.24 -8.94,27.41 -9.69,26.58 -10.21,25.60 -10.73,24.62 -11.01,23.54 -11.28,22.46 -11.29,21.35 -11.30,20.24 -11.04,19.15 -10.78,18.07 -10.27,17.08 -9.76,16.09 -9.02,15.26 -8.29,14.42 -7.38,13.78 -6.47,13.14 -5.89,13.11 -5.32,13.07 -1.35,10.89 2.61,8.71 8.46,4.38 14.31,0.05 22.67,-5.54 31.02,-11.13 37.76,-14.82 44.50,-18.51 49.12,-20.42 53.74,-22.32 58.13,-24.21 62.52,-26.11 63.52,-26.45 64.52,-26.80 65.57,-26.89 66.63,-26.99 67.68,-26.82 68.72,-26.66 69.70,-26.26 70.68,-25.85 71.53,-25.22 72.38,-24.59 73.06,-23.78 73.74,-22.97 74.20,-22.01 74.66,-21.06 74.88,-20.02 75.11,-18.99 75.07,-17.93 75.04,-16.87 74.75,-15.85 74.47,-14.83 73.95,-13.91 73.43,-12.99 72.70,-12.22 71.97,-11.45 71.08,-10.87 70.19,-10.30 66.95,-8.96 63.71,-7.61 58.48,-6.39 53.25,-5.17 46.30,-3.69 39.34,-2.21 30.15,-0.10 20.96,2.00 11.55,3.70 2.14,5.39 1.04,5.40 -0.04,5.40 -1.11,5.14 -2.18,4.89 -3.15,4.38 -4.12,3.88 -4.94,3.15 -5.77,2.43 -6.39,1.53 -7.02,0.63 -7.41,-0.38 -7.81,-1.40 -7.94,-2.49 -8.08,-3.58 -7.95,-4.67 -7.83,-5.76 -7.44,-6.78 -7.06,-7.81 -6.44,-8.71 -5.82,-9.62 -5.00,-10.35 -4.19,-11.08 -3.22,-11.59 -2.25,-12.11 -1.19,-12.37 -0.12,-12.64 -0.12,-12.64 L -0.12,-12.64 Z"></path></g></svg>