<?xml version="1.0" standalone="no"?>
<!DOCTYPE svg PUBLIC "-//W3C//DTD SVG 1.1//EN" "http://www.w3.org/Graphics/SVG/1.1/DTD/svg11.dtd">
<svg version="1.1" xmlns="http://www.w3.org/2000/svg" viewBox="0 0 417.26912507442967 365.0810753738351" width="1251.807375223289" height="1095.2432261215054" filter="invert(93%) hue-rotate(180deg)"><!-- svg-source:excalidraw --><metadata></metadata><defs><style class="style-fonts">
      </style></defs><g transform="translate(407.26912507442967 352.95085637165266) rotate(0 -198.63456253721483 -170.4103186847351)" stroke="none"><path fill="#000000" d="M 0.25,6.95 Q 0.25,6.95 -8.02,7.09 -16.29,7.22 -27.89,5.93 -39.48,4.64 -50.72,3.11 -61.96,1.58 -72.10,0.60 -82.25,-0.37 -93.87,-1.12 -105.50,-1.88 -114.99,-2.22 -124.47,-2.56 -133.39,-2.72 -142.31,-2.88 -149.17,-2.63 -156.03,-2.39 -162.92,-2.77 -169.81,-3.15 -175.82,-3.14 -181.83,-3.13 -186.83,-2.91 -191.84,-2.70 -199.91,-2.17 -207.99,-1.64 -215.85,-1.21 -223.72,-0.79 -231.38,-0.46 -239.04,-0.13 -246.05,0.14 -253.06,0.42 -260.48,0.61 -267.90,0.80 -275.60,0.62 -283.30,0.44 -289.93,0.41 -296.55,0.39 -303.30,0.47 -310.05,0.55 -315.64,0.67 -321.22,0.80 -328.00,0.44 -334.78,0.07 -339.66,0.11 -344.55,0.16 -349.48,0.24 -354.41,0.33 -359.40,0.48 -364.39,0.63 -369.06,0.76 -373.74,0.88 -378.39,1.02 -383.05,1.15 -387.53,1.29 -392.01,1.42 -396.56,0.33 -401.10,-0.76 -404.88,-3.02 -408.66,-5.28 -408.69,-12.78 -408.71,-20.27 -407.71,-24.52 -406.71,-28.78 -404.42,-33.15 -402.13,-37.52 -397.71,-42.44 -393.30,-47.36 -389.02,-52.43 -384.74,-57.49 -379.63,-62.98 -374.52,-68.47 -371.09,-72.72 -367.66,-76.97 -365.27,-80.82 -362.87,-84.68 -357.60,-92.59 -352.32,-100.50 -350.16,-104.61 -348.01,-108.72 -345.26,-113.43 -342.51,-118.14 -339.53,-122.22 -336.55,-126.30 -333.53,-131.05 -330.51,-135.80 -327.31,-140.29 -324.11,-144.77 -319.56,-150.70 -315.01,-156.62 -310.43,-163.90 -305.85,-171.18 -303.13,-175.49 -300.42,-179.80 -296.11,-187.08 -291.80,-194.35 -288.94,-198.50 -286.07,-202.66 -283.22,-206.59 -280.38,-210.53 -277.72,-214.17 -275.05,-217.81 -271.29,-223.33 -267.53,-228.86 -264.71,-232.95 -261.88,-237.05 -259.22,-241.46 -256.55,-245.86 -253.67,-250.47 -250.78,-255.08 -246.56,-262.02 -242.35,-268.95 -239.67,-274.50 -236.99,-280.06 -232.55,-287.02 -228.12,-293.99 -225.57,-298.07 -223.02,-302.16 -221.24,-306.08 -219.47,-310.01 -217.73,-314.42 -216.00,-318.82 -214.18,-322.82 -212.35,-326.82 -209.73,-331.81 -207.11,-336.81 -204.31,-341.68 -201.51,-346.55 -202.54,-344.88 -203.57,-343.20 -203.22,-344.72 -202.86,-346.24 -202.15,-347.63 -201.44,-349.02 -200.42,-350.20 -199.40,-351.38 -198.13,-352.29 -196.85,-353.19 -195.40,-353.76 -193.95,-354.33 -192.40,-354.53 -190.85,-354.74 -189.30,-354.57 -187.75,-354.40 -186.28,-353.87 -184.82,-353.33 -183.52,-352.46 -182.23,-351.59 -181.18,-350.43 -180.13,-349.27 -179.39,-347.90 -178.65,-346.53 -178.26,-345.02 -177.86,-343.50 -177.85,-341.94 -177.83,-340.38 -179.62,-345.64 -181.41,-350.89 -178.54,-345.87 -175.68,-340.86 -173.15,-337.04 -170.63,-333.22 -167.48,-327.79 -164.34,-322.36 -160.84,-315.43 -157.35,-308.51 -154.40,-302.18 -151.46,-295.86 -149.24,-290.92 -147.02,-285.98 -144.86,-281.54 -142.70,-277.09 -141.74,-272.70 -140.78,-268.31 -137.81,-262.60 -134.85,-256.90 -132.82,-252.27 -130.80,-247.64 -127.82,-241.84 -124.83,-236.04 -121.10,-228.86 -117.36,-221.68 -113.72,-217.50 -110.08,-213.33 -107.87,-209.33 -105.66,-205.34 -103.07,-201.23 -100.48,-197.13 -97.22,-191.64 -93.96,-186.16 -91.24,-181.07 -88.52,-175.98 -86.26,-169.32 -83.99,-162.67 -82.16,-157.07 -80.33,-151.46 -78.60,-146.84 -76.86,-142.21 -75.16,-137.24 -73.45,-132.28 -70.82,-127.43 -68.18,-122.57 -64.55,-117.67 -60.93,-112.77 -57.32,-107.05 -53.71,-101.34 -50.30,-97.69 -46.88,-94.04 -44.57,-89.01 -42.25,-83.98 -46.24,-75.26 -50.23,-66.53 -55.15,-64.10 -60.08,-61.67 -64.56,-61.26 -69.04,-60.85 -75.65,-61.00 -82.27,-61.14 -88.01,-61.34 -93.75,-61.54 -98.32,-61.60 -102.90,-61.67 -109.15,-61.99 -115.40,-62.32 -120.19,-62.38 -124.98,-62.45 -133.08,-62.42 -141.18,-62.39 -146.96,-62.25 -152.74,-62.11 -157.84,-61.97 -162.94,-61.84 -168.23,-61.73 -173.51,-61.63 -177.96,-61.52 -182.40,-61.41 -187.00,-61.32 -191.60,-61.23 -196.67,-61.17 -201.73,-61.11 -207.14,-61.07 -212.55,-61.03 -217.32,-60.98 -222.10,-60.92 -228.81,-60.97 -235.52,-61.02 -240.30,-60.97 -245.09,-60.92 -249.45,-60.86 -253.80,-60.80 -258.90,-60.71 -264.00,-60.62 -269.32,-61.03 -274.64,-61.45 -279.38,-61.39 -284.11,-61.32 -289.60,-62.31 -295.10,-63.29 -298.83,-66.40 -302.56,-69.51 -303.81,-74.60 -305.06,-79.69 -303.01,-84.47 -300.97,-89.25 -297.47,-92.20 -293.96,-95.14 -290.69,-99.93 -287.41,-104.72 -280.82,-112.68 -274.23,-120.65 -270.72,-124.67 -267.20,-128.70 -264.28,-133.11 -261.36,-137.52 -257.33,-142.23 -253.30,-146.95 -249.23,-153.02 -245.17,-159.08 -241.31,-163.59 -237.46,-168.10 -234.96,-172.29 -232.46,-176.47 -228.78,-181.63 -225.09,-186.79 -222.36,-190.87 -219.62,-194.95 -217.59,-199.58 -215.56,-204.20 -212.92,-209.05 -210.27,-213.90 -207.96,-218.27 -205.66,-222.64 -201.32,-228.44 -196.99,-234.24 -186.63,-231.25 -176.28,-228.26 -172.73,-223.57 -169.19,-218.88 -167.67,-214.37 -166.16,-209.85 -163.87,-204.35 -161.58,-198.84 -159.96,-192.66 -158.34,-186.49 -155.77,-181.12 -153.21,-175.76 -151.84,-171.43 -150.48,-167.10 -149.49,-161.97 -148.50,-156.84 -146.38,-151.82 -144.27,-146.80 -143.09,-142.35 -141.91,-137.91 -144.68,-128.87 -147.46,-119.83 -152.16,-116.90 -156.87,-113.96 -162.08,-113.83 -167.29,-113.71 -171.60,-113.67 -175.92,-113.63 -180.22,-113.59 -184.53,-113.55 -188.12,-113.53 -191.71,-113.51 -194.16,-113.91 -196.61,-114.31 -198.81,-115.48 -201.00,-116.64 -202.71,-118.45 -204.42,-120.25 -205.46,-122.50 -206.50,-124.76 -206.77,-127.23 -207.04,-129.70 -206.51,-132.13 -205.97,-134.55 -204.69,-136.68 -203.41,-138.81 -201.52,-140.42 -199.62,-142.03 -197.31,-142.95 -195.01,-143.87 -192.53,-144.00 -190.04,-144.14 -187.65,-143.47 -185.26,-142.81 -183.20,-141.41 -181.14,-140.02 -179.64,-138.04 -178.14,-136.06 -177.34,-133.70 -176.55,-131.35 -176.55,-128.87 -176.55,-126.38 -177.35,-124.03 -178.14,-121.67 -179.64,-119.69 -181.15,-117.72 -183.20,-116.32 -185.26,-114.93 -187.65,-114.26 -190.05,-113.60 -192.53,-113.73 -195.01,-113.87 -197.32,-114.79 -199.63,-115.71 -201.52,-117.32 -203.41,-118.93 -204.69,-121.06 -205.97,-123.19 -206.51,-125.61 -207.04,-128.04 -206.77,-130.51 -206.50,-132.98 -205.46,-135.24 -204.42,-137.49 -202.71,-139.29 -201.00,-141.10 -198.80,-142.26 -196.61,-143.42 -194.15,-143.82 -191.70,-144.23 -191.70,-144.23 -191.71,-144.23 -185.99,-144.19 -180.27,-144.15 -175.96,-144.11 -171.66,-144.07 -167.63,-141.75 -163.61,-139.42 -165.04,-130.75 -166.47,-122.07 -169.11,-128.26 -171.75,-134.46 -173.16,-139.88 -174.57,-145.31 -176.15,-150.31 -177.74,-155.32 -179.30,-160.49 -180.86,-165.66 -182.82,-170.29 -184.78,-174.92 -186.31,-179.25 -187.83,-183.57 -189.38,-189.08 -190.92,-194.59 -193.14,-201.12 -195.37,-207.65 -197.69,-212.12 -200.02,-216.59 -189.45,-214.84 -178.89,-213.09 -182.37,-206.67 -185.86,-200.25 -188.90,-194.86 -191.94,-189.48 -194.20,-184.67 -196.46,-179.86 -198.99,-176.40 -201.53,-172.95 -204.65,-168.73 -207.77,-164.51 -210.48,-161.07 -213.20,-157.64 -217.32,-152.13 -221.44,-146.62 -224.27,-143.29 -227.11,-139.96 -230.17,-135.09 -233.24,-130.22 -236.53,-126.80 -239.82,-123.38 -243.63,-118.03 -247.44,-112.68 -250.56,-108.52 -253.68,-104.36 -257.03,-99.34 -260.37,-94.32 -264.88,-87.72 -269.38,-81.11 -274.32,-76.97 -279.26,-72.84 -277.87,-77.05 -276.47,-81.25 -280.26,-85.58 -284.05,-89.90 -278.92,-89.76 -273.79,-89.62 -268.86,-89.05 -263.94,-88.48 -258.87,-88.39 -253.80,-88.29 -249.45,-88.24 -245.09,-88.18 -240.30,-88.13 -235.52,-88.08 -228.81,-88.13 -222.10,-88.18 -217.32,-88.12 -212.55,-88.07 -207.14,-88.03 -201.73,-87.99 -196.67,-87.93 -191.60,-87.87 -187.00,-87.78 -182.40,-87.69 -177.96,-87.58 -173.51,-87.47 -168.23,-87.36 -162.94,-87.26 -157.84,-87.13 -152.74,-86.99 -146.96,-86.85 -141.19,-86.71 -133.10,-86.69 -125.01,-86.67 -120.23,-86.75 -115.46,-86.83 -109.28,-87.18 -103.11,-87.54 -98.63,-87.68 -94.15,-87.82 -88.68,-88.19 -83.20,-88.56 -77.84,-89.11 -72.47,-89.66 -67.59,-89.07 -62.70,-88.47 -65.92,-81.59 -69.15,-74.70 -71.75,-78.17 -74.35,-81.63 -77.37,-85.81 -80.40,-89.99 -83.91,-94.33 -87.42,-98.67 -90.11,-102.68 -92.80,-106.70 -95.46,-112.18 -98.11,-117.66 -100.17,-122.66 -102.23,-127.65 -103.96,-133.43 -105.70,-139.22 -107.96,-145.50 -110.22,-151.79 -111.34,-156.32 -112.45,-160.86 -115.38,-166.33 -118.30,-171.80 -120.57,-176.45 -122.85,-181.10 -126.29,-186.52 -129.73,-191.93 -132.31,-196.07 -134.90,-200.21 -139.00,-205.91 -143.10,-211.61 -145.08,-215.44 -147.07,-219.27 -148.98,-223.16 -150.88,-227.04 -153.24,-231.69 -155.61,-236.33 -157.76,-241.43 -159.91,-246.52 -161.51,-250.47 -163.10,-254.42 -165.15,-259.08 -167.20,-263.73 -168.71,-268.49 -170.23,-273.24 -173.06,-279.60 -175.89,-285.96 -178.18,-291.01 -180.47,-296.06 -183.75,-302.35 -187.03,-308.64 -190.45,-314.51 -193.87,-320.37 -196.28,-325.97 -198.70,-331.57 -201.14,-337.38 -203.57,-343.20 -203.22,-344.72 -202.86,-346.24 -202.15,-347.63 -201.45,-349.02 -200.42,-350.20 -199.40,-351.38 -198.13,-352.28 -196.86,-353.19 -195.40,-353.76 -193.95,-354.33 -192.40,-354.53 -190.86,-354.74 -189.30,-354.57 -187.75,-354.40 -186.29,-353.87 -184.82,-353.33 -183.52,-352.46 -182.23,-351.59 -181.18,-350.43 -180.13,-349.27 -179.39,-347.90 -178.65,-346.53 -178.26,-345.02 -177.86,-343.51 -177.85,-341.94 -177.83,-340.38 -177.99,-340.00 -178.16,-339.61 -179.96,-335.43 -181.77,-331.26 -185.09,-326.03 -188.42,-320.80 -191.20,-315.66 -193.97,-310.52 -195.79,-305.48 -197.62,-300.45 -199.89,-295.14 -202.16,-289.83 -204.80,-285.14 -207.45,-280.46 -211.19,-274.68 -214.93,-268.91 -218.38,-262.42 -221.82,-255.93 -225.91,-249.36 -230.00,-242.78 -232.46,-238.35 -234.93,-233.92 -237.64,-228.59 -240.35,-223.26 -244.36,-216.83 -248.37,-210.40 -253.08,-204.66 -257.79,-198.91 -260.47,-195.33 -263.14,-191.75 -266.19,-187.85 -269.24,-183.96 -272.53,-180.08 -275.82,-176.21 -278.06,-171.87 -280.29,-167.53 -282.79,-163.29 -285.29,-159.05 -287.89,-154.48 -290.49,-149.91 -293.10,-145.90 -295.71,-141.88 -298.44,-138.27 -301.17,-134.65 -304.95,-130.15 -308.74,-125.65 -311.62,-121.83 -314.50,-118.01 -318.94,-112.55 -323.37,-107.09 -325.81,-102.79 -328.26,-98.49 -331.12,-92.91 -333.98,-87.33 -338.86,-80.10 -343.74,-72.86 -346.71,-68.02 -349.69,-63.18 -353.12,-58.48 -356.56,-53.79 -360.41,-48.33 -364.25,-42.87 -368.08,-36.57 -371.91,-30.27 -375.65,-25.63 -379.39,-20.98 -382.54,-15.60 -385.69,-10.22 -385.44,-15.86 -385.19,-21.49 -388.60,-24.24 -392.01,-26.98 -387.53,-26.85 -383.05,-26.71 -378.39,-26.58 -373.74,-26.45 -369.06,-26.32 -364.38,-26.19 -359.37,-26.03 -354.37,-25.88 -349.34,-25.76 -344.32,-25.65 -339.00,-25.45 -333.68,-25.24 -327.44,-24.74 -321.20,-24.23 -315.59,-24.09 -309.98,-23.95 -303.07,-23.80 -296.16,-23.65 -288.53,-23.31 -280.89,-22.97 -274.40,-22.54 -267.90,-22.10 -260.48,-21.91 -253.06,-21.72 -246.05,-21.44 -239.04,-21.16 -231.37,-20.83 -223.70,-20.49 -215.80,-20.04 -207.90,-19.59 -199.69,-18.93 -191.49,-18.26 -186.35,-17.81 -181.21,-17.37 -174.88,-16.81 -168.55,-16.26 -162.24,-15.38 -155.94,-14.49 -149.05,-14.14 -142.16,-13.79 -133.15,-13.70 -124.14,-13.61 -114.49,-13.37 -104.84,-13.13 -93.04,-12.51 -81.24,-11.89 -70.87,-11.08 -60.49,-10.27 -49.37,-9.03 -38.26,-7.79 -27.51,-6.89 -16.77,-6.00 -8.51,-6.48 -0.25,-6.95 0.57,-6.88 1.41,-6.81 2.21,-6.55 3.00,-6.28 3.71,-5.83 4.42,-5.38 5.00,-4.77 5.58,-4.16 5.99,-3.43 6.41,-2.70 6.64,-1.90 6.87,-1.09 6.90,-0.25 6.94,0.58 6.76,1.40 6.59,2.22 6.23,2.98 5.87,3.74 5.34,4.39 4.80,5.03 4.13,5.54 3.46,6.04 2.68,6.36 1.91,6.69 1.08,6.82 0.25,6.95 0.25,6.95 L 0.25,6.95 Z"></path></g></svg>